<svg xmlns="http://www.w3.org/2000/svg" xmlns:xlink="http://www.w3.org/1999/xlink" xml:space="preserve" style="enable-background:new 0 0 750 500" viewBox="0 0 750 500"><path d="M0 0h750v500H0z" style="fill:none"/><g style="opacity:.8"><g style="opacity:.5"><path d="M384.886 173.444c-23.979-3.54-46.706-13.303-66.317-28.105-29.292-22.109-90.591-59.731-149.067-40.991-80.656 25.848-81.016 100.624-60.007 141.242 21.009 40.619 169.991 159.565 363.133 140.639C645.462 369.292 679.142 175.43 586.964 140.35c-79.949-30.426-107.225 47.098-202.078 33.094z" style="fill:#ced3e6"/></g><g style="opacity:.5"><ellipse cx="633.704" cy="144.751" rx="7.494" ry="8.066" style="fill:#ced3e6"/></g><path d="M144.422 91.614c2.3-.423 4.626.849 5.436 3.043 1.381 3.743-2.235 7.934-7.102 6.055-4.199-3.109-2.371-8.355 1.666-9.098z" style="fill:#ced3e6"/><circle cx="613.243" cy="72.652" r="9.762" style="fill:#ced3e6" transform="rotate(-80.752 613.256 72.645)"/><g style="opacity:.8"><path d="M174.015 83.916c1.47 5.245-1.589 10.688-6.834 12.159-5.245 1.47-10.688-1.589-12.159-6.834-1.47-5.245 1.589-10.688 6.834-12.159 5.245-1.47 10.689 1.589 12.159 6.834z" style="fill:#ced3e6"/></g><path d="M564.211 377.728c2.181-.843 4.704-.026 5.907 1.979 2.053 3.421-.721 8.212-5.852 7.27-4.703-2.273-3.884-7.769-.055-9.249zM591.857 364.661c2.42 4.88.426 10.797-4.454 13.217s-10.797.426-13.217-4.454-.426-10.797 4.454-13.217c4.879-2.42 10.796-.426 13.217 4.454z" style="fill:#ced3e6"/><circle cx="594.852" cy="57.713" r="6.005" style="fill:#ced3e6"/></g><g style="opacity:.8"><path d="M616.854 166.51c-.008-53.652-44.68-112.441-100.276-115.993-.977-.062-1.963-.117-2.96-.163-79.704-3.715-85.777 93.498-157.89 104.461-72.113 10.964-127.184-44.386-213.473-8.274-77.498 32.433-98.489 214.682 129.214 221.99 182.181 5.848 345.409-41.949 345.385-202.021z" style="fill:#ced3e6"/></g><ellipse cx="473.996" cy="424.479" rx="175.706" ry="9.064" style="fill:#ced3e6"/><path d="M593.009 399.108H568.66v25.323h28.473v-21.2a4.123 4.123 0 0 0-4.124-4.123zM438.408 344.848h84.52v54.261h-84.52z" style="fill:#ced3e6"/><path d="M587.551 424.431H354.382v-9.401c0-8.794 7.129-15.923 15.922-15.923h201.324c8.794 0 15.922 7.129 15.922 15.923v9.401z" style="fill:#fff"/><path d="M428.049 344.848h84.52v54.261h-84.52z" style="fill:#fff"/><path d="m428.049 361.509 84.52-6.767.013-9.894H428.16z" style="fill:#ced3e6"/><path d="M662.581 120.783v212.786c0 6.236-5.057 11.293-11.293 11.293H290.41c-6.236 0-11.293-5.056-11.293-11.293V120.783c0-6.236 5.056-11.293 11.293-11.293h360.879c6.236 0 11.292 5.057 11.292 11.293z" style="fill:#ced3e6"/><path d="M662.581 120.783v197.05H627.67V109.49h23.619c6.236 0 11.292 5.057 11.292 11.293z" style="fill:#585859"/><path d="M648.223 120.783v212.786c0 6.236-5.057 11.293-11.293 11.293H290.41c-6.236 0-11.293-5.056-11.293-11.293V120.783c0-6.236 5.056-11.293 11.293-11.293h346.52c.169 0 .335.003.501.011.124.006.245.011.366.022h.014c.087.006.175.014.262.025.146.011.29.031.436.051.096.011.189.025.284.045.045.006.09.014.135.023.093.014.183.031.276.053 5.147 1.054 9.019 5.607 9.019 11.063z" style="fill:#fff"/><path d="M639.205 109.721a3.353 3.353 0 0 0-.276-.053c-.045-.008-.09-.017-.135-.023a3.158 3.158 0 0 0-.284-.045 8.085 8.085 0 0 0-.436-.051 3.867 3.867 0 0 0-.262-.025h-.014a10.382 10.382 0 0 0-.867-.033H290.41c-6.236 0-11.293 5.057-11.293 11.293v197.05h369.105v-197.05c.001-5.457-3.871-10.01-9.017-11.063zm-5.623 188.43a3.07 3.07 0 0 1-3.072 3.072H296.829a3.07 3.07 0 0 1-3.072-3.072V127.202a3.07 3.07 0 0 1 3.072-3.072H630.51a3.07 3.07 0 0 1 3.072 3.072v170.949z" style="fill:#39393b"/><path d="M633.582 127.202V298.15a3.07 3.07 0 0 1-3.072 3.072H296.829a3.07 3.07 0 0 1-3.072-3.072V127.202a3.07 3.07 0 0 1 3.072-3.072H630.51a3.07 3.07 0 0 1 3.072 3.072z" style="fill:#ced3e6"/><path d="M633.582 127.202v16.132H293.758v-16.132a3.07 3.07 0 0 1 3.072-3.072h333.681a3.07 3.07 0 0 1 3.071 3.072z" style="fill:#fff"/><path d="M607.261 133.475a2.609 2.609 0 1 1-5.218 0 2.609 2.609 0 0 1 5.218 0z" style="fill:#df615c"/><circle cx="613.109" cy="133.475" r="2.609" style="fill:#5392f3"/><path d="M591.34 136.236H325.865a2.442 2.442 0 0 1-2.435-2.435v-.652a2.442 2.442 0 0 1 2.435-2.434H591.34a2.442 2.442 0 0 1 2.435 2.434v.652a2.443 2.443 0 0 1-2.435 2.435z" style="fill:#d2dcec"/><path d="M306.027 133.475v2.555a.469.469 0 0 1-.703.406l-2.213-1.278-2.213-1.278a.468.468 0 0 1 0-.812l2.213-1.278 2.213-1.278a.469.469 0 0 1 .703.406v2.557zM309.915 133.475v2.555c0 .361.391.586.703.406l2.213-1.278 2.213-1.278a.47.47 0 0 0 0-.812l-2.213-1.278-2.213-1.278a.469.469 0 0 0-.703.406v2.557z"/><path d="m619.235 135.655-.117-.117a.654.654 0 0 1 0-.926l3.505-3.505a.654.654 0 0 1 .926 0l.117.117a.654.654 0 0 1 0 .926l-3.505 3.505a.656.656 0 0 1-.926 0z" style="fill:#39393b"/><path d="m623.549 135.655.117-.117a.654.654 0 0 0 0-.926l-3.505-3.505a.654.654 0 0 0-.926 0l-.117.117a.654.654 0 0 0 0 .926l3.505 3.505c.256.255.67.255.926 0z" style="fill:#39393b"/><path d="M587.836 294.344H338.593a6.422 6.422 0 0 1-6.422-6.422V153.651a6.422 6.422 0 0 1 6.422-6.422h249.244a6.422 6.422 0 0 1 6.422 6.422v134.271a6.423 6.423 0 0 1-6.423 6.422z" style="fill:#fff"/><path d="M408.03 222.502h-57.463a1.596 1.596 0 1 1 0-3.192h57.463a1.596 1.596 0 1 1 0 3.192zM408.03 208.995h-57.463a1.596 1.596 0 1 1 0-3.192h57.463a1.595 1.595 0 1 1 0 3.192zM408.03 236.008h-57.463a1.596 1.596 0 1 1 0-3.192h57.463a1.596 1.596 0 1 1 0 3.192zM584.595 222.502h-57.463a1.596 1.596 0 1 1 0-3.192h57.463a1.597 1.597 0 0 1 0 3.192zM584.595 208.995h-57.463a1.596 1.596 0 1 1 0-3.192h57.463a1.596 1.596 0 1 1 0 3.192zM584.595 236.008h-57.463a1.596 1.596 0 1 1 0-3.192h57.463a1.597 1.597 0 0 1 0 3.192z" style="fill:#ced3e6"/><path d="M332.171 271.497h262.088v21.487a1.36 1.36 0 0 1-1.361 1.358H333.532a1.36 1.36 0 0 1-1.361-1.358v-21.487z" style="fill:#39393b"/><path d="M568.515 279.966v-1.937h2.424v-1.723h-3.285a.862.862 0 0 0-.862.862v2.799h1.723zM568.515 283.413h-1.724v2.946c0 .476.386.862.862.862h3.285v-1.723h-2.424v-2.085zM575.983 279.966h1.723v-2.799a.862.862 0 0 0-.862-.862h-3.159v1.723h2.298v1.938zM575.983 283.413v2.084h-2.298v1.723h3.159a.862.862 0 0 0 .862-.862v-2.946h-1.723zM347.438 282.134v-5.443l4.714 2.722 4.714 2.721-4.714 2.722-4.714 2.722zM373.572 287.147h-1.239a.844.844 0 0 1-.841-.841v-8.227c0-.463.379-.841.841-.841h1.239c.463 0 .841.379.841.841v8.227a.844.844 0 0 1-.841.841zM379.676 287.147h-1.239a.844.844 0 0 1-.841-.841v-8.227c0-.463.379-.841.841-.841h1.239c.463 0 .842.379.842.841v8.227a.846.846 0 0 1-.842.841z" style="fill:#fff"/><path d="M332.171 267.202h262.088v4.296H332.171z" style="fill:#ced3e6"/><path d="M332.171 267.204h134.48v4.296h-134.48z" style="fill:#df615c"/><path d="M552.35 250.486h2.957v6.477h3.959v2.293h-6.916v-8.77zM560.079 250.486h2.957v8.77h-2.957v-8.77zM573.835 250.486l-3.708 8.77h-2.907l-3.709-8.77h3.182l2.093 5.124 2.142-5.124h2.907zM581.414 257.026v2.23h-7.292v-8.77h7.129v2.23h-4.222v1.027h3.709v2.13h-3.709v1.153h4.385z" style="fill:#39393b"/><path d="M547.482 254.8a3.606 3.606 0 1 1-7.212 0 3.606 3.606 0 0 1 7.212 0z" style="fill:#df615c"/><path d="M364.183 257.24c0 2.002-1.899 3.297-4.622 3.297s-4.622-1.296-4.622-3.297c0-1.03.515-1.84 1.384-2.37-.633-.5-1.016-1.178-1.016-2.031 0-1.87 1.752-3.077 4.254-3.077s4.254 1.207 4.254 3.077c0 .854-.383 1.531-1.016 2.031.869.53 1.384 1.34 1.384 2.37zm-3.488-.117c0-.663-.471-1.075-1.134-1.075-.663 0-1.133.412-1.133 1.075 0 .662.471 1.074 1.133 1.074s1.134-.412 1.134-1.074zm-1.958-4.137c0 .559.353.883.824.883s.824-.324.824-.883c0-.559-.353-.883-.824-.883s-.824.324-.824.883zM364.829 255.15c0-3.415 1.943-5.388 4.666-5.388 2.723 0 4.666 1.972 4.666 5.388 0 3.415-1.943 5.387-4.666 5.387-2.723.001-4.666-1.972-4.666-5.387zm5.844 0c0-1.987-.5-2.606-1.177-2.606s-1.178.618-1.178 2.606c0 1.987.5 2.605 1.178 2.605.677.001 1.177-.617 1.177-2.605z" style="fill:#39393b"/><path d="M348.899 252.257a3.167 3.167 0 1 1-6.334 0 3.167 3.167 0 0 1 6.334 0zM351.653 260.273h-11.842s1.346-3.763 5.831-3.763c.033 0 .061.003.09.003.029 0 .057-.003.09-.003 4.485 0 5.831 3.763 5.831 3.763z" style="fill:#df615c"/><defs><path id="a" d="M342.214 267.493c-1.317 4.029-1.317 4.732-1.317 4.029l.044-115.115c0-.704-.044-.593-.044-83.947h258.87l.034 195.026-257.587.007z"/></defs><clipPath id="b"><use xlink:href="#a" style="overflow:visible"/></clipPath><g style="clip-path:url(#b)"><path d="M382.123 180.744s-1.584 9.661-8.699 11.392c-5.746 1.395-11.162-4.123-13.035-6.297-.448-.52-.691-.848-.691-.848s-.427.045-1.066.035c-1.498-.02-4.162-.326-5.204-2.168-1.486-2.625 3.922-4.418 3.922-4.418s-2.773-2.476-2.079-4.277c.685-1.77 4.404-2.14 4.404-2.14s-4.005-2.6-2.665-4.869c2.016-3.41 6.16.341 6.49.548-.262-.3-5.451-5.669-2.611-6.635 2.479-.843 6.555 1.946 9.235 4.709.426.437.665.691.665.691s.161-.122.443-.31c1.341-.897 5.455-3.298 8.076-1.109 3.171 2.648 2.815 15.696 2.815 15.696z" style="fill:#ea9b7a"/><path d="M374.697 186.677a.567.567 0 0 1-.717-.823c.937-1.395 1.227-2.818.861-4.229-.939-3.618-5.778-6.121-5.827-6.146a.566.566 0 0 1 .513-1.007c.217.111 5.342 2.764 6.407 6.869.451 1.738.109 3.468-1.017 5.143a.557.557 0 0 1-.22.193z" style="fill:#d96c63"/><path d="M369.758 172.75c-.003.669-.279 1.201-.797 1.538-.107.073-.23.131-.366.186a4.14 4.14 0 0 1-1.018.23c.276.183.526.378.724.59.198.206.349.427.436.663.119.337.172.855-.25 1.425-.908 1.201-2.998 1.692-4.702 1.893 1.219.718 2.28 1.695 2.632 2.675.224.634.151 1.23-.218 1.722-.256.34-.689.64-1.224.899-1.332.648-3.28 1.053-4.583 1.268-.451-.521-.692-.849-.692-.849s-.43.047-1.07.038a.543.543 0 0 1 .294-.119c2.091-.244 5.671-.977 6.375-1.914.09-.125.18-.311.055-.666-.387-1.079-2.417-2.507-4.173-2.94a.556.556 0 0 1-.425-.617.558.558 0 0 1 .567-.494c1.396.026 5.237-.212 6.261-1.576.148-.198.111-.305.087-.361-.09-.256-.41-.523-.855-.782-.905-.526-2.318-1.012-3.344-1.256a.54.54 0 0 1-.291-.177.55.55 0 0 1-.128-.503.566.566 0 0 1 .683-.419c.195.047.599.148 1.102.305.948.111 1.864.163 2.553.093.413-.041.744-.125.957-.262.128-.084.276-.23.282-.602.006-.465-.23-1.082-.608-1.713a.553.553 0 0 1 .047-.631c.003-.003.009-.009.012-.015a.553.553 0 0 1 .91.058c.47.792.77 1.607.767 2.313z" style="fill:#d96c63"/><path d="M365.618 162.178c.974.603 1.823 1.162 2.646 1.944.804.765 1.311 1.151 1.861 1.656.038-.064-.038.06 0 0l-10.856-46.06c-.163-.707-1.219-.492-1.093.224l7.442 42.236c.005.003-.005-.003 0 0zM375.056 187.756c-3.763 2.428-4.819.631-4.819.631l-1.908-10.818c.055-.058.108-.122.157-.186.422-.57.369-1.088.25-1.425a1.94 1.94 0 0 0-.436-.663 3.324 3.324 0 0 0-.439-.387l-.041-.235a3.94 3.94 0 0 0 .773-.198c.137-.055.259-.113.366-.186.343-.224.582-.535.698-.913.457.436 1.024.689 1.693.759.181.02.361.023.547.017l3.159 13.604z" style="fill:#39393b"/><path d="M378.327 170.866c-.107.096-1.767 1.546-3.707 2.489-1.075.522-2.237.889-3.269.781-.85-.089-1.538-.477-2.043-1.155-1.79-2.405-.258-5.545.816-7.203.426.437.665.691.665.691s.161-.122.443-.31c-.925 1.366-2.471 4.199-1.019 6.147.311.421.721.651 1.254.706 1.992.21 5.088-2.089 6.112-2.992a.565.565 0 0 1 .748.846z" style="fill:#d96c63"/><path d="m436.444 159.693-.002-.021c-.001-.004 0-.022-.003-.004l-.013.061-.029.137-.068.332-.15.734c-.051.249-.106.505-.165.766-.056.258-.114.518-.178.782a85.684 85.684 0 0 1-.789 3.191c-.585 2.138-1.207 4.289-1.932 6.404-.727 2.114-1.478 4.219-2.335 6.274-.435 1.023-.864 2.049-1.331 3.054-.44 1.018-.931 2.007-1.403 3.005-.99 1.968-2.025 3.906-3.144 5.775-.264.479-.564.93-.846 1.395-.291.458-.559.933-.865 1.379-.602.898-1.184 1.812-1.816 2.681-1.22 1.778-2.567 3.438-3.909 5.093-1.393 1.605-2.806 3.19-4.319 4.659-.377.368-.747.746-1.128 1.109l-1.171 1.059-.584.532-.146.133.075-.068.102-.086c.138-.113.283-.214.436-.308a6.85 6.85 0 0 1 2.105-.975c.18-.046.33-.096.501-.125.083-.016.167-.028.251-.038l.212-.036a3.57 3.57 0 0 1 .418-.032c.109-.012.219-.017.329-.013.051 0 .119.01.155.008.039-.001.077-.001.116.001.074.002.162.019.221.026a.723.723 0 0 1 .138.017l.064.017c.009 0 .019 0 .027.002.165.052-.163.002-.652-.211-.497-.208-1.16-.558-1.882-.984a33.15 33.15 0 0 1-2.306-1.518c-1.61-1.135-3.296-2.5-4.985-3.947a131.744 131.744 0 0 1-5.075-4.634 174.607 174.607 0 0 1-5.044-5.004 278.338 278.338 0 0 1-4.975-5.23 203.792 203.792 0 0 1-2.454-2.66l-2.357-2.582-18.223 13.669.607.919.576.851 1.15 1.671a236.13 236.13 0 0 0 2.354 3.27 188.581 188.581 0 0 0 4.943 6.378 176.731 176.731 0 0 0 5.316 6.211c.927 1.02 1.867 2.036 2.837 3.045a126.484 126.484 0 0 0 2.997 3c2.066 1.987 4.247 3.942 6.71 5.859a59.354 59.354 0 0 0 3.965 2.833 40.283 40.283 0 0 0 4.798 2.701c1.82.852 3.898 1.684 6.559 2.241l.494.1a44.02 44.02 0 0 0 1.619.236c.375.042.782.068 1.173.093l.592.031c.195.01.422.005.632.005.428-.003.856-.014 1.283-.034.448-.031.912-.081 1.366-.136.229-.029.453-.057.685-.094.239-.044.479-.09.717-.14.48-.103.946-.201 1.429-.342a19.692 19.692 0 0 0 5.549-2.585c.407-.285.803-.582 1.193-.889l.29-.232.262-.215.209-.186.836-.744 1.668-1.494c.544-.509 1.073-1.034 1.609-1.551 2.154-2.062 4.133-4.28 6.061-6.53 1.877-2.285 3.689-4.623 5.332-7.055 1.681-2.411 3.191-4.916 4.629-7.447l1.043-1.915c.345-.639.661-1.291.991-1.936.329-.646.655-1.293.956-1.949l.92-1.962a106.384 106.384 0 0 0 5.787-16.18c.731-2.762 1.388-5.541 1.892-8.375.253-1.418.491-2.841.681-4.3.049-.362.094-.73.137-1.1.044-.367.086-.74.125-1.12.04-.372.078-.766.112-1.156l.105-1.391-24.06-2.205z" style="fill:#faaf3a"/><path d="M379.225 190.733a1.571 1.571 0 1 0 3.131-.267 1.571 1.571 0 0 0-3.131.267zM411.895 217.735a.672.672 0 0 0 .651-.508c1.261-5.043 1.101-11.37 1.094-11.637a.67.67 0 1 0-1.342.038c.002.063.161 6.412-1.054 11.274a.671.671 0 0 0 .651.833z" style="fill:#c77e2e"/><path d="M416.191 212.874a.672.672 0 0 0 .6-.972c-.092-.184-2.263-4.523-3.287-5.816a.671.671 0 1 0-1.052.834c.939 1.184 3.116 5.538 3.138 5.581a.67.67 0 0 0 .601.373zM374.397 203.775a.67.67 0 0 0 .482-.204c5.621-5.797 18.308-14.955 18.435-15.047a.67.67 0 1 0-.785-1.089c-.129.092-12.912 9.321-18.615 15.202a.671.671 0 0 0 .483 1.138z" style="fill:#c77e2e"/><path d="M379.828 198.818a.67.67 0 0 0 .516-1.101l-6.784-8.142a.672.672 0 0 0-1.031.859l6.784 8.142c.132.16.323.242.515.242z" style="fill:#c77e2e"/><path d="m453.033 357.239 9.096-53.683.746-4.388-26.186-9.243-1.494-.526-6.236-2.2s-.499 2.295-1.273 6.243c-.093.477-.191.978-.291 1.501-2.457 12.695-7.065 38.862-8.318 62.295h33.956z" style="fill:#39393b"/><path d="M448.391 357.239c3.935-21.405 8.993-52.685 9.287-54.509a.71.71 0 0 0-.587-.811.706.706 0 0 0-.81.586c-.072.449-5.323 32.923-9.334 54.734h1.444z" style="fill:#585859"/><path d="M506.013 270.061s1.971 18.696-2.283 29.105c-4.253 10.409-59.317 5.052-73.35-4.316-5.756-3.843 6.503-39.299 6.503-39.299l69.13 14.51z" style="fill:#39393b"/><path d="M427.395 294.945a16.045 16.045 0 0 0 2.437-.628 16.325 16.325 0 0 0 3.622-1.753 19.13 19.13 0 0 0 3.234-2.638c6.07-6.124 7.857-15.38 7.942-15.832a.711.711 0 0 0-.566-.826.711.711 0 0 0-.825.566c-.02.11-1.88 9.737-8.044 15.564-.769.73-1.606 1.4-2.513 1.982a14.976 14.976 0 0 1-4.996 2.061c-.093.478-.192.979-.291 1.504zM461.369 300.174a.697.697 0 0 0 .668.716h.006c.39.019.72-.271.739-.647.125-2.556.275-5.174.44-7.789.029-.46.058-.921.089-1.381.556-8.544 1.262-16.933 1.794-22.855l.126-1.389c.119-1.3.226-2.452.318-3.428-.469-.073-.937-.148-1.4-.226-.092.976-.2 2.139-.319 3.453-.042.446-.082.911-.127 1.389-.527 5.871-1.228 14.186-1.784 22.678-.032.468-.061.939-.094 1.408-.17 2.709-.326 5.425-.456 8.071z" style="fill:#585859"/><path d="M459.355 291.157c.221.105 1.211.566 2.47.946.44.134.912.256 1.396.352.443.085.892.149 1.338.174.855.048 1.682-.042 2.371-.372.859-.411 1.416-1.158 1.609-2.158.514-2.636 1.593-13.52 2.319-21.219.047-.473.09-.935.132-1.384l.306-3.303c-.467-.056-.937-.113-1.406-.175-.088.957-.192 2.091-.31 3.339l-.129 1.384c-.728 7.679-1.803 18.548-2.301 21.102-.113.59-.383.968-.852 1.193-.748.357-1.871.282-2.987.039a14.991 14.991 0 0 1-1.392-.379 17.04 17.04 0 0 1-1.939-.76.717.717 0 0 0-.946.307.673.673 0 0 0 .321.914z" style="fill:#585859"/><path d="M499.169 357.239c2.178-19.924 4.697-46.585 6.121-62.033.047-.484.088-.951.13-1.413.628-6.815 1.014-11.108 1.014-11.108-3.378-1.408-9.507-.44-16.026 1.411-.472.132-.944.267-1.418.411-11.585 3.471-23.863 9.328-23.863 9.328v63.405h34.042z" style="fill:#39393b"/><path d="M495.841 357.239c1.882-22.149 4.112-54.152 4.142-54.573a.706.706 0 1 0-1.41-.097c-.03.421-2.267 32.54-4.15 54.67h1.418zM485.085 274.095c.062.328 1.029 5.344 3.904 10.41 1.694 2.986 4.051 5.988 7.272 8.061 2.706 1.741 5.731 2.624 9.03 2.641l.13-1.414c-3.079.003-5.889-.806-8.394-2.414-2.878-1.852-5.033-4.555-6.619-7.283-2.929-5.038-3.919-10.178-3.933-10.257a.708.708 0 0 0-.823-.568.708.708 0 0 0-.567.824z" style="fill:#585859"/><path d="M428.451 268.881c15.243 14.228 51.288 21.794 79.072 8.265 3.047-8.329 6.399-38.055 7.297-46.94.181-1.769.325-3.539.442-5.311.562-8.522.442-17.106.029-26.09l-.07-1.468c-.363-7.387-.907-15.053-1.418-23.186-1.015-16.106-6.39-26.029-15.728-27.514-4.343-.69-7.777-1.913-10.309-3.109-.31-.146-.602-.29-.886-.436-3.012-1.535-4.717-2.919-4.717-2.919h-20.829c-1.793 2.615-4.053 4.258-6.484 5.419-.269.129-.541.251-.816.371-7.393 3.191-16.015 2.556-17.793 11.473-1.117 5.598 3.17 17.114 2.72 40.464a187.011 187.011 0 0 1-.178 5.331 206.867 206.867 0 0 1-.79 10.657 236.947 236.947 0 0 1-1.24 10.193c-1.389 9.705-5.109 32.321-8.302 44.8z" style="fill:#faaf3a"/><path d="M499.84 273.745a.624.624 0 0 1-.604-.789c11.569-42.418 9.233-85.533 9.209-85.964a.625.625 0 0 1 1.248-.072c.025.433 2.371 43.752-9.25 86.365a.628.628 0 0 1-.603.46zM437.066 218.653a.671.671 0 0 0 .666-.596c1.384-12.268 1.4-36.675 1.4-36.92a.67.67 0 1 0-1.342 0c0 .244-.016 24.576-1.392 36.769a.67.67 0 0 0 .668.747zM465.6 264.858a1.571 1.571 0 1 0 3.131-.267 1.571 1.571 0 0 0-3.131.267zM465.35 272.455a1.571 1.571 0 1 0 3.131-.267 1.571 1.571 0 0 0-3.131.267zM447.011 188.882c-4.089-4.749-2.556-15.322-2.488-15.769a.67.67 0 0 1 .664-.571h13.871c.332 0 .615.243.664.571.067.448 1.601 11.02-2.488 15.769-1.299 1.509-3.019 2.274-5.111 2.274-2.093 0-3.813-.765-5.112-2.274zm-1.233-14.998c-.256 2.233-.937 10.42 2.25 14.122 1.047 1.216 2.386 1.807 4.094 1.807 1.707 0 3.046-.591 4.093-1.806 3.185-3.698 2.506-11.89 2.251-14.124h-12.688z" style="fill:#c77e2e"/><path d="M484.042 88.816c-3.884-2.513-16.106-3.775-16.106-3.775s-2.013-5.285-4.278-6.795c-5.15-3.434-5.788 3.523-5.788 3.523s-5.033-7.046-9.563-5.033 1.258 8.556 1.258 8.556-6.795-1.258-6.04 4.53c.755 5.788 7.298 8.305 7.298 8.305s-2.013 3.272-1.007 8.556c1.007 5.285 3.272 5.536 3.272 5.536l28.186 2.517s5.788 0 7.298-7.298c1.51-7.298-3.523-10.318-3.523-10.318s3.271-5.535-1.007-8.304z" style="fill:#39393b"/><path d="M461.018 136.631v5.295c.619.501 1.246.936 1.874 1.313 9.194 5.522 19.112-1.313 19.112-1.313v-18.358l-18.484 11.505-2.502 1.558z" style="fill:#ea9b7a"/><path d="M461.018 136.479v5.447c.619.501 1.246.936 1.874 1.313 7.828-3.099 13.526-11.312 13.526-11.312l-12.898 3.147-2.502 1.405z" style="fill:#39393b"/><path d="M481.958 136.547s6.185 1.035 7.885 8.117c-6.028 6.306-11.357 11.773-19.982 13.371v-12.667s7.612-1.903 12.097-8.821zM460.825 138.377s-5.526 1.186-7.674 8.256c5.571 6.779 8.547 9.33 16.71 11.402v-12.667s-4.551-.073-9.036-6.991z" style="fill:#faaf3a"/><path d="m457.711 236.829 3.581 8.647v.003l1.609 3.885 4.545 10.978 2.193-4.239.779-1.501 1.761-3.399.776-1.501 1.761-3.399.776-1.5 1.761-3.399v-.003l.779-1.498 1.654-3.195-.035-.347-.258-2.534-.585-5.745-.258-2.538-.585-5.745-.258-2.535-.585-5.745-.258-2.534-.585-5.749-.258-2.534-.585-5.745-.258-2.535-.585-5.745-.258-2.537-.585-5.743-.258-2.537-.585-5.746-.258-2.534-.604-5.939-4.39-.172-.129.988-.265 2.011-.602 4.559-.266 2.011-.601 4.559-.266 2.013-.601 4.559-.266 2.011-.601 4.559-.266 2.011-.602 4.561-.265 2.011-.602 4.559-.265 2.011-.602 4.558-.266 2.014-.601 4.559-.266 2.011-.601 4.558-.266 2.014-.601 4.559-.266 2.011-.602 4.558-.265 2.014z" style="fill:#39393b"/><path d="m467.261 164.468 5.646 5.646-.258-2.534-5.123-5.123zM466.393 171.038l7.357 7.359-.258-2.537-6.833-6.833zM465.526 177.61l9.067 9.067-.258-2.537-8.543-8.543zM464.659 184.18l10.777 10.777-.258-2.535-10.253-10.253zM463.792 190.75l12.487 12.486-.258-2.534-11.963-11.963zM462.925 197.322l14.197 14.197-.258-2.534-13.674-13.674zM462.058 203.892l15.907 15.907-.258-2.535-15.384-15.383zM461.19 210.464l17.618 17.618-.258-2.538-17.094-17.094zM460.323 217.034l19.328 19.327-.258-2.534-18.804-18.804zM459.456 223.606l17.797 17.795.779-1.498-18.31-18.311zM458.589 230.176l16.127 16.127.776-1.5-16.637-16.638zM457.722 236.748l14.457 14.455.776-1.501-14.968-14.968zM461.292 245.479l1.609 3.885 6.738 6.739.779-1.501z" style="fill:#585859"/><path d="m472.046 161.642-2.185 3.248-2.205-3.42-.385 2.922 2.556 2.601 2.449-3.09z" style="fill:#585859"/><path d="m475.717 156.185-5.856 8.705-5.612-8.705 5.612-7.27z" style="fill:#39393b"/><path d="M479.118 162.14a.67.67 0 0 0 .418-.146c5.797-4.622 10.734-16.569 10.942-17.075a.67.67 0 1 0-1.243-.508c-.048.117-4.697 11.366-10.002 16.084l-8.818-11.977a.67.67 0 0 0-1.09.012l-8.227 11.68c-1.255-2.267-4.558-8.291-7.333-13.874a.673.673 0 0 0-1.203.598c3.502 7.048 7.84 14.788 7.883 14.866a.672.672 0 0 0 1.134.058l8.306-11.792 8.69 11.804a.676.676 0 0 0 .452.268l.091.002z" style="fill:#c77e2e"/><path d="M469.875 149.586a.67.67 0 0 0 .671-.671v-2.998a.671.671 0 0 0-1.342 0v2.998c0 .371.301.671.671.671z" style="fill:#c77e2e"/><path d="M454.401 113.166s-3.007-3.553-4.707 0c-1.7 3.553-.392 10.744 4.184 9.567l.523-9.567z" style="fill:#d96c63"/><path d="M451.194 125.625s-.016 10.947 11.371 10.922c11.316-.021 19.027-8.908 19.428-9.319l.012-.011.124-2.301.643-11.942.345-6.382s1.445-11.493-9.477-13.588c-7.98-1.532-15.463-.207-19.239 3.956a8.08 8.08 0 0 0-.352.413c-1.189 1.463-1.945 3.248-2.148 5.352l-.354 11.464-.087 2.81-.266 8.626z" style="fill:#ea9b7a"/><path d="M464.268 105.969s4.777 3.558 7.621 1.289c2.844-2.269-3.781-4.74-5.959-4.554-2.179.187-3.081 2.458-1.662 3.265zM459.068 105.969s-4.777 3.558-7.621 1.289c-2.844-2.269 3.781-4.74 5.959-4.554 2.178.187 3.081 2.458 1.662 3.265z" style="fill:#39393b"/><path d="M462.832 127.055c1.824.163 3.186-.984 3.255-1.044a.503.503 0 1 0-.656-.764c-.073.062-1.648 1.366-3.499.544a.502.502 0 1 0-.409.919c.455.203.894.308 1.309.345z" style="fill:#d96c63"/><path d="M467.768 119.24s-6.947 1.398-10.456 1.084c0 0 1.305 5.17 6.475 3.865 4.024-1.015 3.981-4.949 3.981-4.949z" style="fill:#fff"/><path d="M454.05 97.374c1.786-.632 3.077-.044 5.859 1.179 4.024 1.767 8.522.177 12.498-1.855 3.976-2.032 6.361.795 5.006 2.65-1.354 1.855-1.207 3.357.295 5.723 1.502 2.364-2.841 3.465-.442 5.321 1.011.782.951 1.949.542 3.037-.445 1.187.597 2.402 1.844 2.17 1.295-.329 3.12-2.624 3.12-2.624l.345-6.382s1.445-11.493-9.477-13.588c-7.98-1.532-15.463-.207-19.239 3.956a8.06 8.06 0 0 0-.351.413z" style="fill:#39393b"/><path d="M466.398 115.599c0 .797 1.642 1.443 3.667 1.443s3.666-.646 3.666-1.443-1.642-1.443-3.666-1.443c-2.025 0-3.667.647-3.667 1.443zM451.461 117c.283.028.579.042.883.042 2.023 0 3.665-.647 3.665-1.444 0-.797-1.642-1.443-3.665-1.443-.274 0-.541.012-.797.035l-.086 2.81z" style="fill:#d96c63"/><path d="M464.811 111.213c0 1.094.496 1.982 1.109 1.982.612 0 1.109-.887 1.109-1.982s-.496-1.982-1.109-1.982c-.613-.001-1.109.887-1.109 1.982zM453.811 111.213c0 1.094.496 1.982 1.109 1.982.612 0 1.109-.887 1.109-1.982s-.497-1.982-1.109-1.982c-.613-.001-1.109.887-1.109 1.982zM478.429 122.786c.052.121 1.492 3.463 3.564 4.442l.011-.011.123-2.301c.001 0-1.796-.306-3.698-2.13z" style="fill:#39393b"/><path d="M480.434 115.184s4.377-5.879 7.583-1.259c2.642 3.807-2.353 13.728-7.583 10.329v-9.07z" style="fill:#ea9b7a"/><path d="M481.033 122.483a.45.45 0 0 0 .447-.401c.487-4.449 4.214-6.001 4.372-6.064a.452.452 0 0 0 .25-.586.45.45 0 0 0-.584-.251c-.179.071-4.387 1.803-4.933 6.803a.45.45 0 0 0 .448.499z" style="fill:#39393b"/><path d="M485.235 119.753a.451.451 0 0 0 .285-.799c-.18-.146-1.795-1.418-3.147-1.072a.451.451 0 0 0 .223.873c.778-.199 1.964.581 2.356.899a.454.454 0 0 0 .283.099zM461.256 116.723a.45.45 0 0 0 0-.9c-1.657 0-2.431-.875-2.688-1.253a1700.93 1700.93 0 0 0 3.599-7.473.45.45 0 0 0-.813-.389c-.019.039-1.872 3.914-3.702 7.685a.452.452 0 0 0-.003.387c.038.079.938 1.943 3.607 1.943z" style="fill:#39393b"/></g><g style="clip-path:url(#b)"><path d="M570.207 157.31s6.063 6.122 12.05 3.736c4.833-1.93 5.904-8.65 6.139-11.164.056-.602.064-.961.064-.961s.329-.186.783-.519c1.064-.778 2.819-2.356 2.628-4.209-.273-2.641-5.067-1.169-5.067-1.169s.726-3.191-.69-4.128c-1.394-.921-4.251.711-4.251.711s1.547-3.908-.572-4.851c-3.185-1.418-4.245 3.386-4.375 3.703.035-.349 1.551-15.076-.979-14.321-2.208.659-4.242 12.969-4.755 16.318-.083.531-.125.835-.125.835s-.177-.006-.476.004c-1.419.041-5.595.416-6.359 3.324-.925 3.513 5.985 12.691 5.985 12.691z" style="fill:#ea9b7a"/><path d="M582.612 146.904c-.507 1.138-.77 2.379-.522 3.263.162.569.519.959 1.035 1.123.356.113.819.106 1.335.02 1.287-.215 2.889-.917 3.935-1.428.057-.602.063-.96.063-.96s.331-.185.785-.519a.487.487 0 0 0-.271.064c-1.623.891-4.565 2.191-5.548 1.877-.127-.042-.288-.132-.38-.447-.272-.971.455-3.033 1.494-4.237a.49.49 0 0 0-.009-.66.492.492 0 0 0-.66-.064c-.989.73-3.864 2.517-5.294 2.062-.208-.066-.236-.162-.248-.214-.065-.229.029-.585.215-.997.38-.838 1.147-1.908 1.758-2.606a.486.486 0 0 0 .119-.274.487.487 0 0 0-.165-.427.499.499 0 0 0-.704.047c-.273.312-1.221 1.433-1.791 2.588-.207.421-.365.848-.419 1.24a1.71 1.71 0 0 0 .026.699c.086.302.312.702.905.893 1.267.397 3.017-.316 4.341-1.043z" style="fill:#d96c63"/><path d="M575.01 142.72a.488.488 0 0 1 .355.428c.051.646.196 1.206.437 1.54.193.263.374.292.51.287.221-.01.502-.118.818-.3.786-.449 1.794-1.339 2.659-2.208a.482.482 0 0 1-.119.274c-.612.698-1.379 1.768-1.758 2.607-.099.065-.2.125-.298.182a3.785 3.785 0 0 1-.903.386c-.125.03-.242.049-.357.053-.543.023-1.013-.22-1.357-.698-.363-.505-.563-1.241-.628-2.048a.486.486 0 0 1 .641-.503z" style="fill:#d96c63"/><path d="M567.892 148.288c.126.014 2.056.208 3.929-.105 1.037-.173 2.058-.503 2.743-1.106a2.48 2.48 0 0 0 .877-1.87c.058-2.638-2.643-4.109-4.259-4.751-.083.531-.125.835-.125.835s-.177-.006-.476.004c1.36.508 3.914 1.752 3.866 3.889-.009.46-.185.835-.539 1.146-1.322 1.166-4.715 1.096-5.911.971a.496.496 0 1 0-.105.987zM578.559 157.779a.498.498 0 0 0 .094-.956c-1.384-.522-2.317-1.395-2.774-2.595-1.172-3.074 1.023-7.337 1.045-7.38a.498.498 0 0 0-.881-.461c-.099.191-2.422 4.707-1.093 8.195.563 1.477 1.69 2.543 3.352 3.171.085.032.173.04.257.026z" style="fill:#d96c63"/><path d="m504.783 150.164 10.363 9a629.185 629.185 0 0 0 4.987 4.606 565.916 565.916 0 0 0 4.989 4.554c1.672 1.495 3.33 2.992 4.993 4.454a236.99 236.99 0 0 0 4.982 4.263c1.64 1.376 3.286 2.707 4.826 3.85a44.146 44.146 0 0 0 2.107 1.48l.401.256.163.102c.035.024.039.032.06.051.063.059.103.1.13.136.053.07.045.125.114.18.064.057.222.098.512.079.577-.036 1.665-.407 2.906-1.129 1.244-.717 2.619-1.758 3.983-2.976a53.87 53.87 0 0 0 4.093-4.11c2.686-3.01 5.279-6.399 7.726-9.954 2.461-3.551 4.2-6.291 6.423-10.069 3.595 4.343 9.111 6.494 15.1 5.773-1.69 4.591-3.639 9.053-5.84 13.477-2.225 4.412-4.689 8.78-7.685 13.057-1.502 2.137-3.118 4.272-4.988 6.348-1.87 2.077-3.952 4.131-6.494 6.065a32.747 32.747 0 0 1-4.23 2.745 27.698 27.698 0 0 1-5.248 2.187c-1.94.575-4.088.958-6.334 1a23.038 23.038 0 0 1-6.711-.855 24.156 24.156 0 0 1-3.104-1.101l-.72-.326-.606-.296c-.209-.101-.381-.194-.57-.291-.181-.095-.379-.196-.546-.288a61.418 61.418 0 0 1-3.751-2.217c-2.281-1.453-4.333-2.893-6.343-4.348a224.01 224.01 0 0 1-5.816-4.423 246.907 246.907 0 0 1-5.587-4.495 455.581 455.581 0 0 1-5.441-4.569 630.657 630.657 0 0 1-5.328-4.648 489.38 489.38 0 0 1-5.233-4.731l-2.586-2.402-1.285-1.218c-.435-.412-.847-.808-1.303-1.252l16.891-17.965z" style="fill:#faaf3a"/><path d="M514.673 192.675a.624.624 0 0 1-.358-.113c-6.841-4.789-19.007-14.879-19.129-14.98a.625.625 0 0 1 .798-.962c.122.101 12.249 10.158 19.048 14.918a.624.624 0 0 1-.359 1.137z" style="fill:#c77e2e"/><path d="M500.52 181.762a.567.567 0 0 1-.091-.007l-4.82-.701a.625.625 0 0 1 .179-1.237l4.82.701a.625.625 0 0 1-.088 1.244zM580.277 168.49a.637.637 0 0 0-.43-1.187c-9.076 1.977-13.596-6.68-13.641-6.768a.637.637 0 0 0-.856-.279l-.005.003a.637.637 0 0 0-.274.854c.049.096 5.021 9.618 15.047 7.434a.64.64 0 0 0 .159-.057z" style="fill:#c77e2e"/><path d="M575.611 168.657a.633.633 0 0 0 .291-.314l2.988-6.977a.637.637 0 0 0-1.17-.501l-2.988 6.977a.637.637 0 0 0 .879.815zM570.26 161.949a1.103 1.103 0 1 0 1.958-1.017 1.103 1.103 0 0 0-1.958 1.017zM541.458 190.937a.634.634 0 0 0 .335-.461c.007-.04.675-4.015 1.858-6.337a.636.636 0 1 0-1.134-.578c-1.273 2.499-1.952 6.536-1.98 6.707a.637.637 0 0 0 .921.669z" style="fill:#c77e2e"/><path d="M545.592 189.505a.636.636 0 0 0 .195-.973c-.018-.021-1.789-2.156-2.213-4.237a.637.637 0 0 0-1.248.254c.49 2.401 2.404 4.704 2.485 4.801.196.232.522.29.781.155z" style="fill:#c77e2e"/></g><ellipse cx="186.664" cy="463.186" rx="144.84" ry="8.814" style="fill:#ced3e6"/><path d="m177.629 217.852 14.631 53.496-5.215-6.012c1.933 1.026 4.168 1.816 6.643 2.371 2.473.556 5.172.878 7.991 1.024 2.821.147 5.762.121 8.768-.004 3.007-.126 6.08-.351 9.199-.617l.017-.001a8.363 8.363 0 0 1 9.042 7.621c.374 4.387-2.739 8.275-7.014 8.968-3.217.513-6.488.998-9.844 1.387-3.356.386-6.797.679-10.359.759-3.561.077-7.251-.056-11.067-.609-3.807-.553-7.758-1.546-11.618-3.211a9.103 9.103 0 0 1-5.03-5.457l-.185-.555-17.552-52.61c-1.973-5.914 1.222-12.307 7.135-14.28 5.914-1.973 12.307 1.222 14.28 7.135.059.186.126.408.178.595z" style="fill:#ea9b7a"/><path d="M183.263 411.788c-.218 0-.439-.037-.656-.115l-76.645-27.633a1.933 1.933 0 0 1 1.311-3.637l76.645 27.633a1.933 1.933 0 0 1-.655 3.752z" style="fill:#c77e2e"/><path d="M103.434 411.788a1.935 1.935 0 0 1-.658-3.751l77.554-28.088a1.934 1.934 0 0 1 1.317 3.636l-77.555 28.088a1.97 1.97 0 0 1-.658.115z" style="fill:#c77e2e"/><path d="M190.079 461.172a3.309 3.309 0 0 1-3.275-2.87L172.96 354.937h-57.93l-13.628 103.359a3.309 3.309 0 1 1-6.561-.865l14.007-106.235a3.308 3.308 0 0 1 3.28-2.876h63.726a3.308 3.308 0 0 1 3.279 2.869l14.228 106.235a3.308 3.308 0 0 1-3.282 3.748z" style="fill:#faaf3a"/><path d="M157.398 351.628H116.01c-13.112 0-27.153-7.176-29.167-20.133a245.77 245.77 0 0 1-2.606-49.502c.85-17.414 9.165-33.615 22.855-44.411 0 0 8.267 36.029-2.128 85.756 3.969 18.896 52.434 28.29 52.434 28.29z" style="fill:#faaf3a"/><path d="M148.773 140.316s-4.923-11.856-17.946-9.624c-9.103 1.561-12.982 12.903-12.445 30.416.78 25.489-7.842 40.85-7.842 40.85l11.444 2.601c-.001.001 29.13-43.695 26.789-64.243zM253.15 416.879h-18.486s-4.278-20.519-5.713-32.025c-1.438-11.506-2.181-38.784-2.181-38.784s-14.733 4.785-45.571 2.982c-68.33-3.992-42.421-54.193-42.421-54.193 2.309 3.189 16.45.977 26.115 2.501 29.666 2.847 55.394 14.491 70.835 21.152 3.719 1.603 7.023 3.3 9.918 5.085 3.723 2.295 6.052 9.256 7.455 18.413 4.22 27.523.049 74.869.049 74.869z" style="fill:#39393b"/><path d="M236.957 406.992a.661.661 0 0 1-.648-.531c-2.666-13.2-3.561-29.629-4.281-42.83-.597-10.946-1.16-21.285-2.566-22.528-1.139-1.006-5.868-.221-11.855.773-11.909 1.977-29.906 4.965-49.753.347-10.811-2.515-18.758-7.767-23.622-15.608-8.387-13.523-4.564-30.288-4.524-30.456a.663.663 0 0 1 1.288.304c-.038.163-3.734 16.415 4.367 29.464 4.672 7.527 12.34 12.576 22.791 15.008 19.591 4.558 37.431 1.596 49.236-.363 7.07-1.174 11.337-1.882 12.948-.459 1.74 1.538 2.229 9.097 3.011 23.447.717 13.158 1.61 29.534 4.257 42.64a.662.662 0 0 1-.649.792z" style="fill:#585859"/><path d="M253.503 407.34h-.014l-20.557-.441a.661.661 0 0 1-.647-.675.653.653 0 0 1 .676-.647l20.557.441a.661.661 0 0 1-.015 1.322z" style="fill:#585859"/><path d="M252.64 440.564h-13.048l-2.513-15.308-1.376-8.377h16.212l.257 8.377z" style="fill:#ea9b7a"/><path d="M252.64 440.564h-13.048l-1.871-11.396-.642-3.912h15.093l.125 4.055z" style="fill:#faaf3a"/><path d="m252.297 429.311-14.576-.143-.642-3.912h15.093z" style="fill:#c77e2e"/><path d="M284.84 461.172h-49.353c-.366-.666-.566-1.612-.648-2.741-.309-4.176 1.021-10.837 1.674-15.038.08-.491.148-.948.2-1.362.091-.703.148-1.287.148-1.717 0-3.428 3.034-2.841 3.034-2.841 4.994 4.899 10.648-2.445 13.951-.036 0 0 .134.098.437.334.277.218.698.557 1.283 1.048.842.703 2.022 1.724 3.621 3.161 3.916 3.525 10.58 5.852 16.255 8.224.723.302 1.394.605 2.017.905.473.228.919.457 1.34.685 4.637 2.504 6.113 4.897 6.448 6.637.319 1.67-.407 2.741-.407 2.741z" style="fill:#0875f7"/><path d="M278.797 451.795c-1.271 1.012-4.098 3.036-6.366 3.036-.1 0-.2-.002-.298-.011-1.601-.134-7.483-3.025-12.268-5.654-2.743-1.508-5.247-2.991-7.048-4.18-2.954-1.947-3.466-2.69-3.582-3.207-.432-1.947 2.788-3.305 5.047-4.007.277.218.698.557 1.283 1.048-2.804.764-5.108 1.963-5.001 2.645.275.578 3.195 2.804 10.18 6.627 5.329 2.916 10.382 5.274 11.504 5.368 1.519.123 3.753-1.26 5.21-2.35.473.228.919.458 1.339.685zM284.84 461.172h-49.351c-.367-.667-.567-1.613-.649-2.741h50.406c.319 1.669-.406 2.741-.406 2.741z" style="fill:#084fc7"/><path d="M240.523 461.172h-1.466c1.463-1.672 2.832-4.236 2.653-7.902-.238-4.876-3.164-8.164-5.197-9.876.079-.491.147-.949.2-1.363 2.191 1.675 5.884 5.341 6.172 11.18.171 3.502-.978 6.113-2.362 7.961z" style="fill:#084fc7"/><path d="M258.349 444.892a.813.813 0 0 1-.196-1.603l3.083-.765a.812.812 0 1 1 .392 1.578l-3.083.765a.775.775 0 0 1-.196.025zM255.285 442.326a.814.814 0 0 1-.196-1.602l3.083-.765a.812.812 0 1 1 .392 1.578l-3.083.765a.821.821 0 0 1-.196.024zM261.432 446.684a.813.813 0 0 1-.196-1.603l3.083-.765a.812.812 0 1 1 .392 1.578l-3.083.765a.775.775 0 0 1-.196.025zM264.515 448.407a.815.815 0 0 1-.196-1.603l3.083-.765a.813.813 0 1 1 .392 1.578l-3.083.765a.78.78 0 0 1-.196.025zM267.876 450a.813.813 0 0 1-.196-1.603l3.083-.765a.813.813 0 1 1 .391 1.578l-3.083.765a.761.761 0 0 1-.195.025zM271.521 451.359a.813.813 0 0 1-.196-1.603l3.083-.765a.812.812 0 1 1 .392 1.578l-3.083.765a.775.775 0 0 1-.196.025z" style="fill:#fff"/><path d="M104.559 278.946s-.585 3.985 4.757 5.106l55.676 1.856s3.762-1.891 3.084-6.554c0 .001-23.508-13.201-63.517-.408z" style="fill:#084fc7"/><path d="M165.755 297.361c-28.9 15.897-60.456 3.096-60.456 3.096 1.544-4.212 2.687-8.962 3.517-13.282a146.4 146.4 0 0 0 1.75-11.8c12.294-.675 42.427-1.956 54.235.844l.094 4.731.86 16.411z" style="fill:#ea9b7a"/><path d="M144.408 289.736c-.214 1.49-.887 2.626-1.503 2.538-.616-.089-.943-1.368-.729-2.858.214-1.49.887-2.626 1.503-2.538.616.088.943 1.368.729 2.858zM164.894 280.95c-12.306-.748-36.523-1.007-56.078 6.224a146.4 146.4 0 0 0 1.75-11.8c12.294-.675 42.427-1.956 54.235.844l.093 4.732z" style="fill:#d96c63"/><path d="M178.624 258.085c-.115.356-.255.69-.415 1.004-.059.118-.12.236-.184.351-1.547 2.871-3.944 5.358-5.95 7.129a43.4 43.4 0 0 1-1.189 1.004 37.946 37.946 0 0 1-1.803 1.378c-.398.285-.631.432-.631.432l-.007.086c-.022.214-.039.44-.059.678-.069.909-.13 1.994-.174 3.229a207.46 207.46 0 0 0-.093 3.256c-.015.869-.032 1.778-.042 2.723-16.333-7.296-49.968-2.691-63.516-.41.248-1.171.474-2.316.683-3.436.958-5.167 1.495-9.82 1.709-13.985.322-6.203-.221-15.525-1.537-25.154-.083-.626-.172-1.247-.263-1.874a63.01 63.01 0 0 0-.187-1.22 168.687 168.687 0 0 0-1.613-8.988c-2.672-12.816-.796-26.269 12.197-27.86a196.171 196.171 0 0 1 15.726-1.263l25.119 7.296 2.389.692c1.373.442 2.642.869 3.816 1.287.501.182.987.359 1.454.533 1.218.457 2.323.904 3.325 1.346 2.011.889 3.605 1.756 4.865 2.652 5.511 3.912 4.656 8.332 4.516 17.062l-.002.118c-.003.111-.003.221-.005.336-.003.049 0 .101 0 .15a62.114 62.114 0 0 0 .112 4.44c.093 1.648.241 3.286.42 4.892a155.497 155.497 0 0 0 .451 3.696c1.009 7.644 2.254 14.341.888 18.42z" style="fill:#0875f7"/><path d="M176.758 226.153c-.003.111-.003.221-.005.336-.003.049 0 .101 0 .15-.005.356-.005.712-.003 1.068l-5.277 3.313a.733.733 0 0 1-1.017-.231.739.739 0 0 1 .233-1.017l5.597-3.512a.747.747 0 0 1 .472-.107zM141.956 254.426a.736.736 0 0 1-.493-1.284l4.911-4.42a.736.736 0 1 1 .985 1.095l-4.911 4.42a.734.734 0 0 1-.492.189zM177.738 239.667l-3.364 3.028a.73.73 0 0 1-.494.189.737.737 0 0 1-.494-1.284l4.123-3.71c.074.596.15 1.19.229 1.777zM131.996 236.653a.737.737 0 0 1 .774-1.137l6.432 1.515a.737.737 0 0 1-.338 1.434l-6.431-1.516a.732.732 0 0 1-.437-.296zM109.05 249.269a.736.736 0 0 1-.493-1.284l4.911-4.42a.736.736 0 1 1 .985 1.095l-4.911 4.42a.734.734 0 0 1-.492.189zM166.214 248.217a.735.735 0 0 1 1.374-.061l2.638 6.058a.738.738 0 0 1-1.35.589l-2.638-6.058a.733.733 0 0 1-.024-.528zM178.624 258.085c-.115.356-.255.69-.415 1.004-.059.118-.12.236-.184.351l-3.588-1.132a.727.727 0 0 1-.413-.329.735.735 0 0 1 .854-1.075l3.746 1.181zM158.345 258.613a.737.737 0 0 1 .62 1.227l-4.44 4.893a.737.737 0 0 1-1.092-.991l4.441-4.893a.742.742 0 0 1 .471-.236zM155.73 247.331a.737.737 0 0 1-.266-1.35l5.597-3.513a.738.738 0 0 1 .784 1.248l-5.597 3.513a.739.739 0 0 1-.518.102zM159.296 226.052a.737.737 0 0 1-.629 1.224l-6.569-.716a.736.736 0 1 1 .16-1.464l6.569.716a.725.725 0 0 1 .469.24zM149.745 211.804a.736.736 0 0 1 1.364-.174l3.127 5.821a.737.737 0 1 1-1.298.697l-3.126-5.821a.735.735 0 0 1-.067-.523zM172.075 266.569a43.4 43.4 0 0 1-1.189 1.004l-.864-2.2a.733.733 0 0 1 .415-.955.736.736 0 0 1 .955.415l.683 1.736zM111.677 255.375a.738.738 0 0 1 .899-1.042l6.217 2.237a.738.738 0 0 1-.499 1.387l-6.217-2.237a.739.739 0 0 1-.4-.345zM114.723 263.778a.737.737 0 0 1 .482 1.289l-4.949 4.378a.737.737 0 0 1-.976-1.104l4.949-4.378a.736.736 0 0 1 .494-.185zM123.689 270.731a.738.738 0 0 1-.701 1.183l-6.514-1.11a.736.736 0 1 1 .248-1.453l6.514 1.11a.74.74 0 0 1 .453.27zM129.137 208.871a.737.737 0 0 1 1.11-.813l5.553 3.582a.738.738 0 0 1-.798 1.239l-5.552-3.582a.736.736 0 0 1-.313-.426zM167.021 213.092a.736.736 0 0 1 1.046.894l-2.209 6.227a.737.737 0 0 1-1.389-.493l2.209-6.227a.733.733 0 0 1 .343-.401zM164.055 204.975l-3.413 4.376a.736.736 0 1 1-1.162-.906l3.121-4.003c.501.182.987.359 1.454.533z" style="fill:#084fc7"/><path d="M130.684 265.413a.603.603 0 0 0 .76.382c.109-.036 10.795-3.497 22.042 1.162 5.714 2.367 10.795 3.273 14.901 3.191.018-.239.036-.465.058-.678l.008-.084s.233-.149.631-.434c-4.037.197-9.214-.655-15.135-3.107-11.675-4.835-22.432-1.342-22.883-1.191a.6.6 0 0 0-.382.759zM156.394 202.464c-1.405 2.182-4.311 4.654-10.191 4.227-8.111-.588-13.449-8.327-15.314-11.508l.386-.014 25.119 7.295z" style="fill:#084fc7"/><path d="M147.766 216.822c.24.049.478.083.718.102 2.243.181 4.06-.47 5.399-1.933 3.901-4.262 2.299-13.977 2.229-14.388a.602.602 0 0 0-1.185.202c.016.095 1.574 9.548-1.931 13.375-1.091 1.191-2.535 1.697-4.414 1.545-7.862-.633-16.667-20.596-16.755-20.798a.601.601 0 0 0-1.102.482c.36.827 8.711 19.725 17.041 21.413z" style="fill:#fff"/><path d="M172.245 208.973c-.518 5.764.9 15.272 4.62 22.106a63.738 63.738 0 0 1-.113-4.44v-.151l.009-.452c.14-8.729.993-13.152-4.516-17.063zM126.039 219.113c-2.882 11.119-13.417 20.042-20.624 17.258-.085-.625-.174-1.247-.265-1.873-.059-.407-.121-.813-.185-1.221a167.65 167.65 0 0 0-1.615-8.987c-2.671-12.815-.795-26.267 12.198-27.859.944-.115 1.873-.222 2.776-.318 6.507 2.772 11.034 10.196 7.715 23z" style="fill:#ea9b7a"/><path d="m127.524 210.634 16.885 61.739-6.019-6.938c2.231 1.184 4.81 2.096 7.666 2.736 2.854.642 5.969 1.013 9.223 1.182 3.256.169 6.65.14 10.119-.004 3.47-.145 7.017-.405 10.616-.712l.019-.002c5.31-.453 9.982 3.485 10.435 8.795.432 5.062-3.161 9.55-8.095 10.349-3.712.592-7.488 1.152-11.361 1.6-3.873.446-7.844.784-11.956.876-4.11.089-8.369-.064-12.772-.703-4.394-.638-8.953-1.784-13.408-3.706a10.503 10.503 0 0 1-5.805-6.297l-.214-.641-20.257-60.716c-2.277-6.825 1.41-14.203 8.235-16.48 6.825-2.277 14.203 1.41 16.48 8.235.073.215.15.471.209.687z" style="fill:#ea9b7a"/><path d="M135.081 270.397a.5.5 0 0 1-.249-.935c.155-.089 3.85-2.175 7.711-2.473a.5.5 0 0 1 .077.997c-3.633.28-7.257 2.324-7.293 2.345a.499.499 0 0 1-.246.066z" style="fill:#d96c63"/><path d="M141.215 268.168a.492.492 0 0 1-.259-.073c-2.329-1.413-5.147-1.627-5.175-1.629a.5.5 0 1 1 .071-.997c.125.009 3.09.234 5.623 1.772a.5.5 0 0 1-.26.927z" style="fill:#d96c63"/><path d="M156.272 235.626c7.472 1.514 10.741-6.213 10.773-6.291a.602.602 0 0 0-1.112-.458c-.121.292-2.936 6.884-9.422 5.569-6.806-1.379-19.506-14.775-19.633-14.91a.6.6 0 1 0-.875.825c.531.565 13.093 13.811 20.269 15.265z" style="fill:#084fc7"/><path d="M144.525 187s-11.991-2.258-15.372-14.359c-3.219-11.521-.742-17.498 2.606-23.722 2.522-4.688 10.518-11.022 21.734-8.749 11.324 2.294 19.787 8.106 21.039 17.416 2.341 17.422-11.715 38.676-30.007 29.414z" style="fill:#39393b"/><path d="M129.723 174.507a.623.623 0 0 1-.543-.316c-.217-.38-5.264-9.453-1.075-21.393 2.616-7.456 7.772-10.794 11.637-12.281 4.176-1.607 7.694-1.455 7.843-1.448a.626.626 0 0 1-.06 1.249c-.034-.002-3.442-.143-7.379 1.384-5.239 2.031-8.893 5.904-10.86 11.511-3.994 11.382.931 20.272.981 20.361a.626.626 0 0 1-.544.933z" style="fill:#faaf3a"/><path d="M167.782 174.704s3.902-3.082 4.928.999c1.026 4.081-1.869 11.333-6.411 9.13l1.483-10.129z" style="fill:#d96c63"/><path d="M163.973 182.201c-1.936.641-3.654 2.356-4.088 4.494a5.883 5.883 0 0 0 4.592 6.926 5.883 5.883 0 0 0 6.926-4.592 5.883 5.883 0 0 0-4.592-6.926l-.057-.01c-.112.4-.065.722.162.972a4.967 4.967 0 0 1 3.593 5.782 4.968 4.968 0 0 1-5.85 3.879 4.97 4.97 0 0 1-3.879-5.85c.395-1.95 1.836-3.333 3.655-3.771l-.462-.904z" style="fill:#faaf3a"/><path d="m155.96 192.186-1.635 10.215s-7.648 7.806-21.617-6.198c3.75-2.794 5.181-9.267 4.743-13.452 0 0 1.103.662 2.798 2.198.332.3.756.534 1.173.819 3.693 2.512 9.35 5.779 14.538 6.418z" style="fill:#ea9b7a"/><path d="m155.96 192.186-.775 4.843c-4.19-1.866-11.599-5.859-14.935-12.079.364.26.756.534 1.173.819 3.692 2.511 9.349 5.778 14.537 6.417z" style="fill:#39393b"/><path d="M171.561 172.241c-.217 1.081-.423 2.109-.627 3.087a183.437 183.437 0 0 1-.638 3.003c-1.546 7.071-2.822 10.857-4.884 12.275-10.428 7.171-27.401-7.35-27.947-7.818l-.014-.014a65.439 65.439 0 0 1 .003-2.468 63.766 63.766 0 0 1 3.157-18.772c.928-6.238 5.767-11.239 12.002-12.181 6.461-.972 11.32 2.766 14.359 4.421 4.589 2.503 6.386 9.452 4.589 18.467z" style="fill:#ea9b7a"/><path d="M140.968 155.122s7.298-14.037 21.859-10.12c14.561 3.917 15.334 10.68 15.591 14.062s-7.54-2.609-7.54-2.609-.267 6.762-2.866 4.679c-3.187-2.555-6.754-8.07-6.754-8.07s-8.672 8.523-16.913 6.224c-4.68-1.306-3.377-4.166-3.377-4.166z" style="fill:#39393b"/><path d="M158.855 186.01c-1.892 0-3.188-1.307-3.255-1.375a.52.52 0 0 1 .746-.725c.069.07 1.571 1.558 3.551.883a.52.52 0 1 1 .336.984 4.257 4.257 0 0 1-1.378.233z" style="fill:#d96c63"/><path d="M154.495 177.51s7.023 2.081 10.664 2.081c0 0-1.821 5.202-7.023 3.381-4.048-1.417-3.641-5.462-3.641-5.462z" style="fill:#fff"/><path d="M167.529 162.894s-1.825-.186-1.528 1.581c.296 1.767 4.251.687 6.206 4.228.001 0 1.889-3.712-4.678-5.809zM159.423 161.251s1.753.539.793 2.051c-.961 1.512-4.183-1.022-7.363 1.479 0 0-.295-4.154 6.57-3.53z" style="fill:#39393b"/><path d="M156.258 173.922c-.169.835-2.025 1.163-4.145.733-2.12-.43-3.702-1.454-3.533-2.289.169-.835 2.025-1.163 4.145-.733 2.12.43 3.702 1.455 3.533 2.289z" style="fill:#d96c63"/><path d="m176.981 174.472-5.671-.967c-.03.241-.087.476-.142.712a.539.539 0 0 1-.04.115l5.711.974a.423.423 0 0 0 .488-.346.413.413 0 0 0-.346-.488zM161.843 169.628a7.154 7.154 0 0 0-1.962-4.922 7.07 7.07 0 0 0-3.735-2.085 7.155 7.155 0 0 0-8.443 5.55 7.118 7.118 0 0 0 2.047 6.591 7.077 7.077 0 0 0 3.503 1.852 7.136 7.136 0 0 0 6.214-1.679 7.107 7.107 0 0 0 2.229-3.871l.003-.019c.096-.475.145-.949.144-1.417zm-8.418 6.156a6.285 6.285 0 0 1-4.194-3.049 6.276 6.276 0 0 1-.407-5.383 6.31 6.31 0 0 1 5.498-4.022 6.217 6.217 0 0 1 1.651.119 6.24 6.24 0 0 1 3.068 1.611 6.3 6.3 0 0 1 1.825 5.833 6.302 6.302 0 0 1-7.441 4.891z" style="fill:#fff"/><path d="M174.545 166.708a7.038 7.038 0 0 0-.595-.28 7.03 7.03 0 0 0-.745-.257 7.125 7.125 0 0 0-5.765.805 7.108 7.108 0 0 0-2.435 2.541 6.566 6.566 0 0 0-.407.834c-.006.016-.012.03-.016.046a7.15 7.15 0 0 0 4.595 9.48c.13.039.263.075.397.103.065.02.133.034.201.048a7.063 7.063 0 0 0 2.047.121 6.878 6.878 0 0 0 1.19-.202 7.143 7.143 0 0 0 5.206-5.469c.66-3.186-.927-6.325-3.673-7.77zm2.845 7.598a4.67 4.67 0 0 1-.098.4 6.273 6.273 0 0 1-2.759 3.679 6.44 6.44 0 0 1-1.358.634 6.473 6.473 0 0 1-.918.225c-.091.015-.18.028-.271.037a6.249 6.249 0 0 1-2.04-.082l-.188-.041c-.038-.01-.076-.02-.114-.027a6.242 6.242 0 0 1-2.639-1.427 6.285 6.285 0 0 1-1.509-7.296 6.313 6.313 0 0 1 3.059-3.077 6.29 6.29 0 0 1 3.129-.581 6.392 6.392 0 0 1 1.389.261c.263.081.514.177.76.29.194.086.385.185.567.292 2.267 1.329 3.551 4.001 2.99 6.713zM139.171 167.927a.422.422 0 0 1-.27-.642c2.839-4.438 9.666-.454 9.734-.413a.422.422 0 1 1-.432.728c-.062-.037-6.19-3.609-8.589.142a.429.429 0 0 1-.443.185z" style="fill:#fff"/><path d="M164.913 170.597a.422.422 0 0 1-.269-.184c-.908-1.402-2.852-.773-2.871-.767a.422.422 0 1 1-.268-.802c.891-.297 2.84-.448 3.849 1.109a.423.423 0 0 1-.441.644z" style="fill:#fff"/><g style="opacity:.8"><path d="M170.934 175.328a183.437 183.437 0 0 1-.638 3.003c-1.928-.465-3.318-1.421-3.159-2.206.161-.788 1.827-1.123 3.797-.797z" style="fill:#d96c63"/></g><path d="M157.748 169.731c-.232 1.146-.94 1.97-1.582 1.84-.641-.13-.973-1.164-.741-2.311.232-1.146.94-1.97 1.582-1.84.642.13.973 1.165.741 2.311zM169.088 172.028c-.232 1.146-.94 1.97-1.582 1.84-.641-.13-.973-1.164-.74-2.311.232-1.146.94-1.97 1.582-1.84.641.131.972 1.165.74 2.311zM163.234 175.105c.55.111.94.094.973.093a.482.482 0 0 0 .452-.545l-.732-5.352a.48.48 0 1 0-.953.131l.652 4.765c-.478-.072-1.202-.271-1.847-.807a.481.481 0 1 0-.616.741c.71.588 1.482.855 2.071.974zM142.136 178.895c-.081.117-2.296 3.307-4.671 3.894-.002-.001-.002.001-.004.001l-.009-.014a63.519 63.519 0 0 1 .002-2.47c.083.003 2.349.066 4.682-1.411z" style="fill:#39393b"/><path d="M141.65 170.509s-3.336-7.084-7.673-2.927c-3.575 3.426-.448 14.874 5.749 12.424l1.924-9.497z" style="fill:#ea9b7a"/><path d="M133.439 176.617c-1.937.641-3.654 2.356-4.088 4.494a5.883 5.883 0 0 0 4.592 6.926 5.882 5.882 0 0 0 6.926-4.592 5.883 5.883 0 0 0-4.592-6.926l-.058-.01c-.112.4-.065.722.163.972a4.966 4.966 0 0 1 3.592 5.782 4.968 4.968 0 0 1-5.85 3.879 4.97 4.97 0 0 1-3.879-5.85c.395-1.95 1.836-3.334 3.655-3.771l-.461-.904z" style="fill:#faaf3a"/><path d="M139.474 178.026a.481.481 0 0 0 .575-.427c.488-5.351-3.55-8.057-3.722-8.17a.48.48 0 1 0-.527.804c.152.1 3.726 2.516 3.291 7.278a.483.483 0 0 0 .383.515z" style="fill:#39393b"/><path d="M135.653 174.275a.481.481 0 0 0 .318-.045c.477-.249 1.887-.814 2.657-.441a.481.481 0 0 0 .419-.866c-1.344-.65-3.304.34-3.523.455a.482.482 0 0 0 .129.897zM145.953 158.497s-4.488 12.19-4.734 14.646c-.335 3.348-4.761-8.125-.306-17.929l5.04 3.283zM220.966 416.943H202.48s-4.278-20.519-5.713-32.025c-1.437-11.506-2.181-38.784-2.181-38.784s-14.733 4.785-45.571 2.982c-68.33-3.992-42.421-54.193-42.421-54.193 2.309 3.188 19.625 7.582 29.291 9.106 29.666 2.848 52.219 7.885 67.659 14.547 3.719 1.603 7.023 3.3 9.918 5.085 3.723 2.295 6.052 9.257 7.455 18.413 4.22 27.522.049 74.869.049 74.869z" style="fill:#39393b"/><path d="M204.773 407.056a.661.661 0 0 1-.648-.531c-2.666-13.2-3.561-29.629-4.281-42.83-.596-10.946-1.16-21.285-2.566-22.528-1.139-1.006-5.868-.221-11.855.773-11.909 1.977-29.906 4.965-49.753.347-10.81-2.515-18.758-7.766-23.622-15.608-8.387-13.523-4.564-30.288-4.524-30.456a.663.663 0 0 1 1.288.304c-.038.163-3.734 16.415 4.367 29.464 4.672 7.527 12.34 12.576 22.791 15.008 19.591 4.558 37.431 1.596 49.236-.364 7.07-1.173 11.337-1.882 12.948-.459 1.74 1.537 2.229 9.098 3.012 23.447.717 13.158 1.61 29.534 4.257 42.64a.662.662 0 0 1-.65.793z" style="fill:#585859"/><path d="M221.32 407.404h-.014l-20.557-.441a.661.661 0 0 1-.647-.676.654.654 0 0 1 .676-.647l20.557.441a.661.661 0 0 1-.015 1.323z" style="fill:#585859"/><path d="M220.457 440.628h-13.048l-2.513-15.309-1.376-8.376h16.211l.257 8.376z" style="fill:#ea9b7a"/><path d="M220.457 440.628h-13.048l-1.872-11.397-.641-3.912h15.092l.125 4.056z" style="fill:#faaf3a"/><path d="m220.113 429.375-14.576-.144-.641-3.912h15.092z" style="fill:#c77e2e"/><path d="M252.657 461.236h-49.353c-.366-.666-.566-1.612-.648-2.741-.309-4.176 1.021-10.837 1.674-15.038.08-.491.148-.948.2-1.362.091-.703.148-1.287.148-1.717 0-3.427 3.034-2.841 3.034-2.841 4.994 4.899 10.648-2.445 13.951-.036 0 0 .134.098.437.334.277.218.698.557 1.283 1.048.842.703 2.022 1.724 3.621 3.161 3.916 3.525 10.58 5.852 16.255 8.224.723.302 1.394.605 2.017.905.473.227.919.457 1.34.685 4.637 2.504 6.113 4.897 6.448 6.636.318 1.67-.407 2.742-.407 2.742z" style="fill:#0875f7"/><path d="M246.614 451.859c-1.271 1.012-4.098 3.036-6.366 3.036-.1 0-.2-.002-.298-.011-1.601-.134-7.483-3.025-12.268-5.654-2.743-1.508-5.247-2.991-7.048-4.18-2.954-1.947-3.466-2.69-3.582-3.207-.432-1.947 2.788-3.305 5.047-4.007.277.218.698.557 1.283 1.048-2.804.764-5.108 1.963-5.001 2.645.275.578 3.195 2.804 10.18 6.627 5.329 2.916 10.382 5.274 11.503 5.367 1.519.123 3.753-1.26 5.211-2.349.472.227.918.457 1.339.685zM252.656 461.236h-49.351c-.367-.667-.567-1.613-.649-2.741h50.406c.32 1.668-.406 2.741-.406 2.741z" style="fill:#084fc7"/><path d="M208.34 461.236h-1.466c1.463-1.672 2.832-4.236 2.653-7.902-.238-4.876-3.164-8.164-5.197-9.876.079-.491.147-.949.2-1.363 2.191 1.674 5.884 5.341 6.172 11.18.17 3.501-.978 6.113-2.362 7.961z" style="fill:#084fc7"/><path d="M226.166 444.956a.815.815 0 0 1-.196-1.603l3.083-.765a.812.812 0 1 1 .392 1.578l-3.083.765a.786.786 0 0 1-.196.025zM223.102 442.389a.815.815 0 0 1-.196-1.603l3.083-.765a.812.812 0 1 1 .392 1.578l-3.083.765a.775.775 0 0 1-.196.025zM229.248 446.748a.813.813 0 0 1-.196-1.603l3.083-.765a.812.812 0 1 1 .392 1.578l-3.083.765a.775.775 0 0 1-.196.025zM232.331 448.47a.813.813 0 0 1-.195-1.603l3.083-.765a.812.812 0 1 1 .392 1.578l-3.083.765a.788.788 0 0 1-.197.025zM235.693 450.063a.814.814 0 0 1-.196-1.602l3.083-.766a.813.813 0 1 1 .392 1.578l-3.083.765a.737.737 0 0 1-.196.025zM239.338 451.422a.815.815 0 0 1-.195-1.603l3.083-.765a.812.812 0 1 1 .392 1.578l-3.083.765a.788.788 0 0 1-.197.025z" style="fill:#fff"/><path d="M289.065 294.187v4.098c0 2.359-1.425 4.269-3.184 4.269H64.419c-1.758 0-3.182-1.91-3.182-4.269v-4.098c0-2.357 1.425-4.267 3.182-4.267h221.462c1.76 0 3.184 1.91 3.184 4.267z" style="fill:#21b573"/><path d="M61.236 295.485h227.829v1.875H61.236zM282.41 313.087H74.237a1.687 1.687 0 0 1-1.687-1.687v-8.895h211.548v8.895c0 .932-.756 1.687-1.688 1.687zM86.894 365.332H273.06v7.255H86.894z" style="fill:#217c58"/><path d="m73.47 462.527 36.042-149.44H96.855l-36.043 149.44zM286.236 462.527l-36.043-149.44h12.658l36.043 149.44z" style="fill:#21b573"/><path d="M79.79 255.689h3.954v29.808H79.79z" style="fill:#faaf3a" transform="rotate(-8.708 81.798 270.67)"/><path d="m81.464 255.562-3.908.598.86-2.985.446-1.544.888 1.34z" style="fill:#ea9b7a"/><path d="M81.883 283.172h3.954v2.166h-3.954z" style="fill:#39393b" transform="rotate(-8.708 83.892 284.336)"/><path d="m85.979 286.772-3.388.519a.263.263 0 0 1-.3-.22l-.221-1.446 3.908-.599.221 1.447a.262.262 0 0 1-.22.299z" style="fill:#df615c"/><path d="m79.75 252.971-1.334.204.446-1.544z" style="fill:#39393b"/><path d="M81.601 281.64h3.954v1.553h-3.954z" style="fill:#c77e2e" transform="rotate(-8.708 83.578 282.414)"/><path d="m78.75 257.463 3.343 21.82a.302.302 0 1 0 .597-.091l-3.343-21.82a.302.302 0 1 0-.597.091zM80.279 257.227l3.343 21.82a.302.302 0 0 0 .597-.091l-3.342-21.82a.302.302 0 0 0-.344-.253.302.302 0 0 0-.254.344z" style="fill:#c77e2e"/><path d="M84.625 255.703h3.954v29.808h-3.954z" style="fill:#21b573" transform="translate(-.89 .286)"/><path d="m88.531 255.697-3.955.013 1.294-2.824.67-1.462.679 1.458z" style="fill:#ea9b7a"/><path d="M84.671 283.346h3.954v2.166h-3.954z" style="fill:#39393b" transform="translate(-.935 .286)"/><path d="m88.37 287.232-3.428.011a.263.263 0 0 1-.264-.262l-.005-1.463 3.954-.013.004 1.463a.26.26 0 0 1-.261.264z" style="fill:#df615c"/><path d="m87.219 252.882-1.349.004.67-1.462z" style="fill:#39393b"/><path d="M84.664 281.793h3.954v1.553h-3.954z" style="fill:#217c58" transform="translate(-.929 .286)"/><path d="m85.564 257.176.072 22.074a.302.302 0 0 0 .604-.002l-.072-22.074a.302.302 0 0 0-.604.002zM87.111 257.169l.072 22.074a.302.302 0 0 0 .303.301.301.301 0 0 0 .301-.303l-.072-22.074a.302.302 0 0 0-.303-.301.301.301 0 0 0-.301.303z" style="fill:#217c58"/><path d="M76.395 268.618h29.808v3.954H76.395z" style="fill:#0875f7" transform="rotate(-81.918 91.286 270.58)"/><path d="m95.352 256.117-3.915-.556 1.686-2.609.874-1.35.463 1.54z" style="fill:#ea9b7a"/><path d="M87.378 283.196h3.954v2.166h-3.954z" style="fill:#39393b" transform="rotate(8.082 89.377 284.378)"/><path d="m90.656 287.301-3.394-.482a.263.263 0 0 1-.224-.297l.206-1.449 3.915.556-.206 1.449a.263.263 0 0 1-.297.223z" style="fill:#df615c"/><path d="m94.46 253.142-1.337-.19.874-1.35z" style="fill:#39393b"/><path d="M88.84 280.461h1.553v3.954H88.84z" style="fill:#084fc7" transform="rotate(-81.912 89.61 282.423)"/><path d="M92.204 257.153 89.1 279.008a.301.301 0 1 0 .598.084l3.105-21.855a.301.301 0 0 0-.257-.341.304.304 0 0 0-.342.257zM93.736 257.369l-3.105 21.855a.303.303 0 0 0 .599.084l3.105-21.855a.303.303 0 0 0-.257-.342.304.304 0 0 0-.342.258z" style="fill:#084fc7"/><path d="m96.636 267.488-.206 1.599-.188 1.452-.285 2.205-.184 1.435-.287 2.224-.184 1.417-.289 2.242-.181 1.397-.292 2.26-.177 1.381-.294 2.278-.177 1.363-.152 1.179H78.202l-.152-1.179-.177-1.363-.294-2.278-.177-1.381-.292-2.26-.181-1.397-.289-2.242-.184-1.417-.287-2.224-.184-1.435-.285-2.205-.188-1.452-.205-1.599z" style="fill:#df615c"/><path d="m96.43 269.087-.188 1.452H75.7l-.188-1.452zM95.957 272.744l-.184 1.435H76.169l-.184-1.435zM95.486 276.403l-.184 1.417H76.64l-.184-1.417zM95.013 280.062l-.181 1.397H77.11l-.181-1.397zM94.54 283.719l-.177 1.381H77.579l-.177-1.381zM94.069 287.378l-.177 1.363H78.05l-.177-1.363z" style="fill:#b11722"/><path d="m287.775 210.668-13.251 56.036-.349 1.473-.891 3.774a3.615 3.615 0 0 1-3.522 2.787H180.5c-2.335 0-4.062-2.181-3.524-4.452l14.491-61.284a3.615 3.615 0 0 1 3.521-2.785h89.262c2.336.001 4.063 2.179 3.525 4.451z" style="fill:#39393b"/><path d="m274.524 266.704-.349 1.473h-92.682v-1.473z" style="fill:#585859"/><path d="M216.473 220.084c-.741 3.972-4.562 7.192-8.533 7.192-3.972 0-6.591-3.22-5.85-7.192.741-3.972 4.562-7.192 8.534-7.192 3.972.001 6.591 3.22 5.849 7.192z" style="fill:#faaf3a"/><path d="M208.35 218.708c-.148.794-.548 1.438-.894 1.438-.345 0-.505-.644-.357-1.438.148-.794.548-1.438.894-1.438s.506.644.357 1.438zM212.103 218.708c-.148.794-.548 1.438-.894 1.438s-.505-.644-.357-1.438c.148-.794.548-1.438.894-1.438.345 0 .505.644.357 1.438z" style="fill:#39393b"/><path d="M208.691 223.586c-3.093 0-3.224-3.092-3.225-3.123-.005-.169.133-.335.309-.372.176-.037.322.07.327.239.004.112.125 2.631 2.706 2.631 2.584 0 3.644-2.524 3.688-2.631.069-.168.256-.275.417-.238.161.037.237.203.169.372-.013.031-1.298 3.122-4.391 3.122z" style="fill:#39393b"/><path d="M257.736 253.66c.078 3.72 6.381 8.378 6.381 8.378s7.32-4.658 8.209-8.378c.965-4.033-3.641-5.27-7.052-2.229-2.746-3.04-7.623-1.803-7.538 2.229z" style="fill:#df615c"/><path d="M244.403 242.874c-.425 3.857-3.897 6.984-7.754 6.984s-6.639-3.127-6.214-6.984c.425-3.857 3.897-6.984 7.754-6.984 3.856 0 6.639 3.127 6.214 6.984zM198.526 206.217l-15.427 68.522H180.5a3.62 3.62 0 0 1-3.523-4.452l14.489-61.285a3.62 3.62 0 0 1 3.523-2.786h3.537z" style="fill:#585859"/><path d="m224.382 274.738-2.708 15.228h8.943l2.708-15.228z" style="fill:#fff"/><path d="m208.289 287.346 1.831-2.574a3.485 3.485 0 0 1 2.839-1.465h24.521c1.297 0 2.487.721 3.088 1.87l1.235 2.361a1.659 1.659 0 0 1-1.47 2.427H209.64c-1.347.001-2.132-1.521-1.351-2.619z" style="fill:#fff"/><path d="M157.199 289.959h73.66l.8-2.779a2.735 2.735 0 0 0-2.628-3.491h-67.969a2.735 2.735 0 0 0-2.628 1.979l-1.235 4.291z" style="fill:#fff"/><path d="m253.782 187.924-32.58-.023a2.288 2.288 0 0 1-2.286-2.289l.014-20.018a2.288 2.288 0 0 1 2.289-2.286l32.58.022a2.288 2.288 0 0 1 2.286 2.289l-.014 20.018a2.288 2.288 0 0 1-2.289 2.287z" style="fill:#df615c"/><path d="m251.842 184.229-2.973 11.219-5.192-10.545z" style="fill:#df615c"/><path d="M245.729 173.798c-.665 4.204-8.51 9.464-8.51 9.464s-7.552-5.27-7.981-9.475c-.466-4.558 4.931-5.953 8.316-2.514 3.576-3.434 8.896-2.032 8.175 2.525z" style="fill:#fff"/><ellipse cx="660.353" cy="463.594" rx="55.476" ry="5.482" style="fill:#ced3e6"/><path d="M694.318 423.961h-70.035a2.411 2.411 0 0 1-2.411-2.411v-1.107a2.41 2.41 0 0 1 2.411-2.411h70.035a2.411 2.411 0 0 1 2.411 2.411v1.107a2.412 2.412 0 0 1-2.411 2.411z" style="fill:#39393b"/><path d="M625.161 352.335h68.427a2.06 2.06 0 0 1 2.059 2.06v8.406a2.06 2.06 0 0 1-2.059 2.06h-68.427a2.06 2.06 0 0 1-2.06-2.06v-8.406a2.06 2.06 0 0 1 2.06-2.06z" style="fill:#585859"/><path d="M641.318 299.042s-28.853-5.703-36.905-25.833 21.388-35.227 36.905-24.418c16.601 11.563 0 50.251 0 50.251z" style="fill:#21b573"/><path d="M658.475 351.926a.522.522 0 0 1-.516-.446c-2.764-18.697-13.905-45.597-22.765-64.872-9.607-20.901-18.674-37.582-18.764-37.748a.521.521 0 1 1 .917-.499c.091.166 9.174 16.878 18.796 37.811 8.888 19.336 20.067 46.337 22.849 65.155a.523.523 0 0 1-.517.599z" style="fill:#39393b"/><path d="M640.235 297.094a.522.522 0 0 1-.46-.275c-12.55-23.375-32.929-40.333-33.133-40.501a.522.522 0 1 1 .664-.806c.206.17 20.739 17.252 33.388 40.813a.522.522 0 0 1-.459.769z" style="fill:#39393b"/><path d="M640.805 298.767a.519.519 0 0 1-.398-.184c-9.152-10.773-18.525-17.47-24.777-21.192-6.776-4.033-11.447-5.537-11.494-5.552a.522.522 0 0 1 .315-.995c.193.061 4.806 1.544 11.678 5.63 6.328 3.763 15.815 10.536 25.073 21.433a.522.522 0 0 1-.397.86zM638.266 292.64a.523.523 0 0 1-.494-.354c-7.035-20.646-4.447-45.738-4.42-45.989a.521.521 0 1 1 1.038.112c-.027.249-2.589 25.118 4.37 45.541a.523.523 0 0 1-.494.69z" style="fill:#39393b"/><path d="M640.036 296.727a.521.521 0 0 1-.514-.437c-2.153-13.069-.498-23.73 1.268-30.372 1.919-7.213 4.316-11.275 4.418-11.444a.523.523 0 0 1 .897.535c-.024.041-2.437 4.135-4.316 11.22-1.733 6.535-3.355 17.026-1.236 29.892a.522.522 0 0 1-.43.6c-.031.003-.059.006-.087.006z" style="fill:#39393b"/><path d="M671.755 304.301s29.14-3.986 38.369-23.604-19.265-36.431-35.395-26.56c-17.256 10.562-2.974 50.164-2.974 50.164z" style="fill:#21b573"/><path d="M660.701 350.215h-.006a.523.523 0 0 1-.516-.528c.115-9.629 2.215-20.597 6.242-32.601 3.216-9.587 7.663-19.855 13.217-30.52 9.452-18.15 18.97-31.338 19.065-31.47a.523.523 0 0 1 .845.613c-.095.131-9.575 13.268-18.992 31.353-8.678 16.666-19.077 41.061-19.334 62.636a.52.52 0 0 1-.521.517z" style="fill:#39393b"/><path d="M672.982 302.421a.522.522 0 0 1-.444-.796c14.022-22.771 35.53-38.608 35.746-38.765a.521.521 0 1 1 .615.843c-.214.156-21.561 15.878-35.472 38.469a.521.521 0 0 1-.445.249z" style="fill:#39393b"/><path d="M672.314 304.058a.522.522 0 0 1-.377-.883c9.886-10.33 19.758-16.53 26.298-19.912 7.101-3.672 11.794-4.879 11.99-4.929a.523.523 0 0 1 .256 1.012c-.047.012-4.799 1.237-11.802 4.862-6.461 3.345-16.213 9.475-25.987 19.688a.52.52 0 0 1-.378.162zM675.211 298.091a.524.524 0 0 1-.483-.72c8.156-19.976 7.07-44.952 7.058-45.202a.523.523 0 0 1 1.043-.049c.012.252 1.11 25.453-7.134 45.647a.523.523 0 0 1-.484.324z" style="fill:#39393b"/><path d="M673.203 302.067a.522.522 0 0 1-.51-.637c2.877-12.718 1.879-23.286.536-29.913-1.457-7.184-3.623-11.414-3.645-11.456a.522.522 0 1 1 .927-.481c.091.175 2.244 4.371 3.732 11.686 1.37 6.735 2.391 17.475-.532 30.394a.522.522 0 0 1-.508.407z" style="fill:#39393b"/><path d="M660.534 266.34s-24.69-15.982-24.715-37.663c-.026-21.68 32.912-24.803 43.323-9.017 11.139 16.89-18.608 46.68-18.608 46.68z" style="fill:#21b573"/><path d="M657.083 321.855a.522.522 0 0 1-.509-.642c4.356-18.391 3.968-47.505 2.875-68.69-1.185-22.973-3.43-41.825-3.453-42.013a.523.523 0 0 1 1.037-.125c.022.188 2.272 19.076 3.459 42.083 1.096 21.253 1.482 50.474-2.902 68.985a.52.52 0 0 1-.507.402z" style="fill:#39393b"/><path d="M660.442 264.166a.522.522 0 0 1-.518-.463c-3.002-26.36-15.653-49.659-15.78-49.891a.523.523 0 0 1 .915-.503c.128.234 12.877 23.705 15.903 50.275a.522.522 0 0 1-.52.582z" style="fill:#39393b"/><path d="M660.353 265.932a.524.524 0 0 1-.495-.356c-4.512-13.396-10.739-23.088-15.168-28.86-4.801-6.256-8.583-9.383-8.621-9.414a.521.521 0 1 1 .661-.807c.157.128 3.893 3.214 8.763 9.554 4.485 5.839 10.789 15.644 15.354 29.194a.522.522 0 0 1-.494.689zM660.264 259.299l-.027-.001a.522.522 0 0 1-.495-.548c1.11-21.783 12.806-44.133 12.924-44.357a.521.521 0 1 1 .923.488c-.117.221-11.706 22.373-12.804 43.922a.522.522 0 0 1-.521.496z" style="fill:#39393b"/><path d="M660.395 263.752a.522.522 0 0 1-.51-.634c2.84-12.937 8.341-22.3 12.457-27.877 4.469-6.055 8.214-9.006 8.372-9.128a.522.522 0 1 1 .642.823c-.038.029-3.812 3.007-8.199 8.959-4.046 5.49-9.456 14.708-12.252 27.446a.524.524 0 0 1-.51.411z" style="fill:#39393b"/><path d="m690.7 319.048-.861 2.284-.544 1.447-1.561 4.145-.546 1.447-1.604 4.257-.544 1.445-6.878 18.263h-37.575l-6.878-18.263-.544-1.445-1.604-4.257-.546-1.447-1.561-4.145-.543-1.447-.861-2.284a2.392 2.392 0 0 1 2.239-3.237h58.171a2.394 2.394 0 0 1 2.24 3.237z" style="fill:#0875f7"/><path d="m689.839 321.332-.544 1.447h-59.84l-.543-1.447zM687.734 326.923l-.546 1.448h-55.626l-.546-1.448zM685.584 332.627l-.543 1.445h-51.332l-.543-1.445z" style="fill:#084fc7"/><path d="m649.309 364.862-2.084 6.718-29.006 93.499h-5.67l18.396-91.59 1.733-8.627zM706.37 465.079h-5.67l-29.864-96.266-1.226-3.951h16.629l.42 2.094h.002z" style="fill:#39393b"/><path d="M694.318 411.069h-70.035a2.411 2.411 0 0 1-2.411-2.411v-1.107a2.411 2.411 0 0 1 2.411-2.411h70.035a2.412 2.412 0 0 1 2.411 2.411v1.107a2.412 2.412 0 0 1-2.411 2.411z" style="fill:#585859"/><ellipse cx="237.625" cy="97.812" rx="27.115" ry="26.779" style="fill:#ced3e6"/><ellipse cx="237.625" cy="94.326" rx="27.115" ry="26.779" style="fill:#0875f7"/><ellipse cx="237.625" cy="94.326" rx="22.044" ry="21.77" style="fill:#fff"/><path d="M259.669 94.326c0 .58-.023 1.154-.068 1.72-.892-11.204-10.409-20.052-21.976-20.052-11.569 0-21.084 8.848-21.976 20.052a21.725 21.725 0 0 1-.068-1.72c0-12.005 9.888-21.77 22.044-21.77 12.155 0 22.044 9.765 22.044 21.77z" style="fill:#ced3e6"/><path d="M237.626 96.591a.554.554 0 0 1-.443-.22l-10.814-14.378a.54.54 0 0 1 .114-.762c.244-.18.59-.13.771.113l10.552 14.029 11.992-5.198a.555.555 0 0 1 .727.28.543.543 0 0 1-.283.718l-12.394 5.372a.566.566 0 0 1-.222.046z" style="fill:#39393b"/></svg>