<svg width="36" height="38" viewBox="0 0 36 38" fill="none" xmlns="http://www.w3.org/2000/svg">
<path fill-rule="evenodd" clip-rule="evenodd" d="M26.3595 4.84299H23.9156V5.74265H23.9136C23.9136 5.85072 23.8788 5.95591 23.8144 6.04269C23.75 6.12948 23.6595 6.19326 23.556 6.22463C23.3128 6.29849 22.834 6.48311 22.6192 6.60875C22.522 6.67173 22.4062 6.69946 22.291 6.68731C22.1758 6.67517 22.0684 6.62388 21.9865 6.54201L21.35 5.90558L19.6218 7.63381L20.2583 8.27032L20.257 8.27158C20.3334 8.34797 20.3832 8.44686 20.399 8.55367C20.4149 8.66049 20.3961 8.76958 20.3452 8.86486C20.2265 9.08732 20.0166 9.55758 19.9538 9.79809C19.9299 9.91158 19.8676 10.0134 19.7775 10.0864C19.6874 10.1595 19.575 10.1994 19.459 10.1994H18.5593V12.6433H19.4589V12.6453C19.5669 12.6453 19.6721 12.6801 19.7589 12.7445C19.8457 12.8089 19.9095 12.8995 19.9409 13.0029C20.0147 13.2461 20.1994 13.7248 20.3251 13.9397C20.388 14.0368 20.4158 14.1527 20.4036 14.2679C20.3915 14.383 20.3402 14.4905 20.2583 14.5724L19.6218 15.209L21.35 16.9371L21.9865 16.3007L21.9878 16.3019C22.0642 16.2256 22.1631 16.1758 22.2699 16.1599C22.3768 16.1441 22.4859 16.1629 22.5812 16.2137C22.8037 16.3326 23.2737 16.5424 23.5144 16.6052C23.6279 16.6292 23.7297 16.6915 23.8027 16.7816C23.8758 16.8717 23.9157 16.9841 23.9157 17.1001V17.9998H26.3596V17.1001H26.3616C26.3616 16.992 26.3964 16.8869 26.4608 16.8001C26.5252 16.7133 26.6158 16.6495 26.7192 16.6181C26.9625 16.5443 27.441 16.3597 27.656 16.2339C27.7531 16.1709 27.869 16.1432 27.9842 16.1554C28.0993 16.1675 28.2068 16.2188 28.2888 16.3007L28.9253 16.9371L30.6535 15.209L30.017 14.5724L30.0182 14.5712C29.9419 14.4948 29.8921 14.3959 29.8763 14.2891C29.8604 14.1823 29.8792 14.0732 29.9301 13.9779C30.049 13.7553 30.2587 13.2853 30.3215 13.0447C30.3455 12.9312 30.4078 12.8294 30.4979 12.7563C30.588 12.6833 30.7004 12.6434 30.8164 12.6434H31.7161V10.1995H30.8164V10.1975C30.7083 10.1975 30.6032 10.1627 30.5164 10.0983C30.4296 10.0339 30.3658 9.9433 30.3344 9.83989C30.2606 9.59669 30.076 9.11804 29.9502 8.9031C29.8872 8.80592 29.8595 8.69007 29.8716 8.5749C29.8838 8.45973 29.9351 8.35221 30.017 8.27032L30.6535 7.63381L28.9253 5.90566L28.2888 6.54209L28.2875 6.54082C28.2111 6.61715 28.1122 6.66692 28.0054 6.6828C27.8986 6.69868 27.7895 6.67983 27.6942 6.62901C27.4717 6.51018 27.0016 6.30047 26.761 6.23761C26.6475 6.21363 26.5457 6.15138 26.4726 6.06129C26.3996 5.97119 26.3597 5.85873 26.3597 5.74273V4.84307L26.3595 4.84299ZM26.7624 9.79651C27.6598 10.6939 27.6597 12.1489 26.7624 13.0462C25.8651 13.9435 24.41 13.9435 23.5127 13.0462C22.6154 12.1489 22.6154 10.6938 23.5127 9.79651C24.41 8.89922 25.8651 8.89922 26.7624 9.79651ZM25.1376 8.11206C26.9651 8.11206 28.4468 9.59376 28.4468 11.4213C28.4468 13.2488 26.9651 14.7305 25.1376 14.7305C23.31 14.7305 21.8283 13.2488 21.8283 11.4213C21.8283 9.59368 23.31 8.11206 25.1376 8.11206ZM26.5899 30.8683C26.4864 30.7849 26.4199 30.6641 26.4049 30.532C26.3899 30.4 26.4275 30.2673 26.5097 30.1628C26.5918 30.0583 26.7118 29.9904 26.8437 29.9738C26.9756 29.9572 27.1087 29.9933 27.2141 30.0742L28.6567 31.2085L30.9813 28.5233C31.0697 28.4255 31.1929 28.3662 31.3245 28.3582C31.4561 28.3501 31.5857 28.3939 31.6854 28.4802C31.7851 28.5664 31.847 28.6883 31.858 28.8197C31.8689 28.9511 31.8279 29.0816 31.7439 29.1831L29.1229 32.2107C28.9454 32.4284 28.6359 32.4771 28.4105 32.2998L26.5901 30.8683H26.5899ZM2.0763 4.63558H3.98258C4.23417 4.63558 4.44167 4.42808 4.44167 4.17648V1.76963L2.0763 4.63558ZM12.4274 10.6157C12.2933 10.6157 12.1646 10.5624 12.0698 10.4675C11.9749 10.3727 11.9217 10.2441 11.9217 10.1099C11.9217 9.97581 11.9749 9.84717 12.0698 9.75233C12.1646 9.65749 12.2933 9.60421 12.4274 9.60421H16.1099C16.244 9.60421 16.3726 9.65749 16.4675 9.75233C16.5623 9.84717 16.6156 9.97581 16.6156 10.1099C16.6156 10.2441 16.5623 10.3727 16.4675 10.4675C16.3726 10.5624 16.244 10.6157 16.1099 10.6157H12.4274ZM12.4274 13.2385C12.2933 13.2385 12.1646 13.1852 12.0698 13.0904C11.9749 12.9955 11.9217 12.8669 11.9217 12.7328C11.9217 12.5986 11.9749 12.47 12.0698 12.3752C12.1646 12.2803 12.2933 12.227 12.4274 12.227H16.1099C16.244 12.227 16.3726 12.2803 16.4675 12.3752C16.5623 12.47 16.6156 12.5986 16.6156 12.7328C16.6156 12.8669 16.5623 12.9955 16.4675 13.0904C16.3726 13.1852 16.244 13.2385 16.1099 13.2385H12.4274ZM4.55615 33.3273V34.5027C4.55615 34.7542 4.76372 34.9616 5.01516 34.9616H24.472C24.0613 34.4556 23.7049 33.9078 23.4087 33.3272H4.55615V33.3273ZM29.0896 22.7602C28.9766 22.7698 27.3094 23.2634 27.0563 23.3363V18.7589C27.1554 18.6687 27.2346 18.5589 27.2888 18.4363C27.343 18.3138 27.371 18.1813 27.371 18.0473V17.4618L27.8296 17.2717L28.2436 17.6858L28.2447 17.6848C28.4674 17.9122 28.7908 18.0052 29.0897 17.9534V22.7601L29.0896 22.7602ZM29.5037 23.8927L29.1322 23.7856L23.4121 25.4341V29.1451C23.4121 30.9259 23.9964 32.6464 25.0476 34.0561C25.3763 34.4968 25.6046 34.7346 25.9896 35.1163C26.8676 35.9479 27.9339 36.5908 29.1322 36.967C30.8001 36.4433 32.2123 35.4032 33.2168 34.0561C34.2517 32.6682 34.8523 30.9547 34.8523 29.1451V25.4341L29.5037 23.8927ZM29.0896 4.88931C28.7964 4.83848 28.5193 4.91971 28.2833 5.12119L27.8295 5.57094L27.3709 5.38086V4.79541H27.3689C27.3693 4.66154 27.3417 4.52907 27.2878 4.40651C27.234 4.28395 27.1551 4.17402 27.0562 4.08378V3.6573H28.6305C28.8807 3.6573 29.0895 3.86195 29.0895 4.11639L29.0896 4.88931ZM27.0563 2.64586H28.6306C29.44 2.64586 30.1011 3.30857 30.1011 4.11639V5.65129L31.4019 6.95218C31.7751 7.32537 31.7796 7.93757 31.4019 8.31528L30.9879 8.72933L31.178 9.18795H31.7634C32.2944 9.18795 32.7273 9.62273 32.7273 10.1519V12.6908C32.7273 13.2217 32.2921 13.6547 31.7634 13.6547H31.178L30.988 14.1134L31.4395 14.5693C31.5959 14.7456 31.6822 14.9732 31.6818 15.2089H31.6838C31.6838 15.4515 31.5888 15.7054 31.401 15.8894L31.402 15.8904L30.1011 17.1913V23.0172L35.4497 24.5585C35.566 24.5799 35.6711 24.6414 35.7467 24.7323C35.8224 24.8232 35.8638 24.9377 35.8638 25.0559V29.1451C35.8638 31.1771 35.1893 33.1016 34.0268 34.6606C32.8693 36.2128 31.2263 37.4029 29.2822 37.9759C29.1872 38.0056 29.0855 38.0064 28.9901 37.9782C27.6361 37.5804 26.428 36.8833 25.4278 35.973H5.01516C4.20536 35.973 3.5447 35.3124 3.5447 34.5026V33.3272H1.97046C1.16065 33.3272 0.5 32.6667 0.5 31.8569V5.1413C0.5 5.00038 0.550588 4.89176 0.64456 4.78726L4.44238 0.185727C4.4896 0.128189 4.54901 0.0818525 4.61631 0.0500627C4.68362 0.0182729 4.75714 0.0018229 4.83157 0.00190003V0H25.5858C26.3956 0 27.0563 0.66089 27.0563 1.47062V2.64586ZM9.14264 9.50992H5.3198V13.3328H9.14264V11.3096L7.85894 12.5609C7.77285 12.6546 7.65458 12.7123 7.52777 12.7225C7.40097 12.7328 7.27496 12.6948 7.17493 12.6162L5.64344 11.412C5.53994 11.3286 5.47347 11.2078 5.45846 11.0757C5.44344 10.9437 5.48108 10.811 5.56322 10.7065C5.64536 10.602 5.76537 10.5341 5.89724 10.5175C6.02911 10.5009 6.1622 10.537 6.26767 10.6179L7.45194 11.5491L9.14264 9.90109V9.50984V9.50992ZM4.81408 8.49848C4.67995 8.49848 4.55132 8.55176 4.45648 8.6466C4.36164 8.74144 4.30835 8.87007 4.30835 9.0042V13.8385C4.30835 13.9726 4.36164 14.1012 4.45648 14.1961C4.55132 14.2909 4.67995 14.3442 4.81408 14.3442H9.64836C9.78249 14.3442 9.91112 14.2909 10.006 14.1961C10.1008 14.1012 10.1541 13.9726 10.1541 13.8385V10.3238L10.9007 9.59605C10.9482 9.54988 10.9861 9.4948 11.0123 9.43398C11.0385 9.37315 11.0524 9.30775 11.0534 9.24153C11.0543 9.17531 11.0421 9.10956 11.0176 9.04803C10.9932 8.98649 10.9568 8.93039 10.9106 8.88291C10.8644 8.83544 10.8094 8.79752 10.7485 8.77133C10.6877 8.74514 10.6223 8.73119 10.5561 8.73027C10.4899 8.72935 10.4241 8.74148 10.3626 8.76598C10.301 8.79047 10.2449 8.82684 10.1975 8.87302L10.1474 8.92186C10.1278 8.80363 10.0669 8.69619 9.97552 8.61867C9.88413 8.54114 9.7682 8.49858 9.64836 8.49856L4.81408 8.49848ZM12.4274 18.1386C12.2933 18.1386 12.1646 18.0853 12.0698 17.9905C11.9749 17.8957 11.9217 17.767 11.9217 17.6329C11.9217 17.4988 11.9749 17.3701 12.0698 17.2753C12.1646 17.1805 12.2933 17.1272 12.4274 17.1272H18.5882C18.7223 17.1272 18.851 17.1805 18.9458 17.2753C19.0406 17.3701 19.0939 17.4988 19.0939 17.6329C19.0939 17.767 19.0406 17.8957 18.9458 17.9905C18.851 18.0853 18.7223 18.1386 18.5882 18.1386H12.4274ZM12.4274 20.7614H22.9065C23.0406 20.7614 23.1692 20.7082 23.2641 20.6133C23.3589 20.5185 23.4122 20.3899 23.4122 20.2557C23.4122 20.1216 23.3589 19.993 23.2641 19.8981C23.1692 19.8033 23.0406 19.75 22.9065 19.75H12.4274C12.2933 19.75 12.1646 19.8033 12.0698 19.8981C11.9749 19.993 11.9217 20.1216 11.9217 20.2557C11.9217 20.3899 11.9749 20.5185 12.0698 20.6133C12.1646 20.7082 12.2933 20.7614 12.4274 20.7614ZM9.14264 17.0329H5.3198V20.8557H9.14264V18.8326L7.85894 20.0839C7.77285 20.1776 7.65458 20.2353 7.52777 20.2456C7.40097 20.2559 7.27496 20.2179 7.17493 20.1393L5.64344 18.9351C5.53994 18.8517 5.47347 18.7309 5.45846 18.5988C5.44344 18.4667 5.48108 18.3341 5.56322 18.2296C5.64536 18.1251 5.76537 18.0572 5.89724 18.0406C6.02911 18.024 6.1622 18.06 6.26767 18.1409L7.45194 19.0722L9.14264 17.4242V17.0329ZM4.81408 16.0215C4.74766 16.0215 4.6819 16.0345 4.62054 16.0599C4.55919 16.0854 4.50344 16.1226 4.45648 16.1696C4.40952 16.2165 4.37226 16.2723 4.34685 16.3336C4.32143 16.395 4.30835 16.4608 4.30835 16.5272V21.3615C4.30835 21.4279 4.32143 21.4936 4.34685 21.555C4.37226 21.6163 4.40952 21.6721 4.45648 21.7191C4.50344 21.766 4.55919 21.8033 4.62054 21.8287C4.6819 21.8541 4.74766 21.8672 4.81408 21.8672H9.64836C9.78249 21.8672 9.91112 21.8139 10.006 21.7191C10.1008 21.6242 10.1541 21.4956 10.1541 21.3615V17.8467L10.9007 17.119C10.9966 17.0258 11.0515 16.8982 11.0534 16.7645C11.0552 16.6308 11.0039 16.5018 10.9106 16.4059C10.8644 16.3584 10.8094 16.3205 10.7485 16.2943C10.6877 16.2681 10.6223 16.2542 10.5561 16.2532C10.4223 16.2514 10.2933 16.3027 10.1975 16.396L10.1474 16.4448C10.1278 16.3266 10.0669 16.2192 9.97552 16.1416C9.88413 16.0641 9.7682 16.0216 9.64836 16.0215L4.81408 16.0215ZM12.4274 28.2844H22.4007V29.1451C22.4007 30.2475 22.5993 31.318 22.9665 32.3159H1.97046C1.71894 32.3159 1.51144 32.1083 1.51144 31.8569V5.64702H3.98258C4.79246 5.64702 5.45312 4.98637 5.45312 4.17648V1.01144H25.5858C25.8372 1.01144 26.0448 1.21918 26.0448 1.47062V3.83155H23.868C23.3389 3.83155 22.9042 4.26444 22.9042 4.79541V5.38086L22.4456 5.57086L22.0315 5.15681C21.6558 4.78109 21.0441 4.78109 20.6685 5.15681L18.8731 6.95218L18.8741 6.9532C18.4993 7.32046 18.496 7.93805 18.8731 8.31528L19.2872 8.72933L19.0971 9.18795H18.5116V9.18992C18.3852 9.18958 18.26 9.2142 18.1431 9.26238C18.0262 9.31055 17.92 9.38133 17.8306 9.47065L17.8316 9.47168C17.6571 9.6426 17.5479 9.89008 17.5479 10.1519V12.6908C17.5479 13.2209 17.9846 13.6547 18.5117 13.6547H19.0972L19.2872 14.1134L18.8732 14.5274L18.8742 14.5284C18.4948 14.9001 18.5011 15.5183 18.8732 15.8905L20.6686 17.6859L20.6696 17.6848C20.8537 17.8727 21.1075 17.9676 21.3501 17.9676V17.9656C21.5787 17.9656 21.8079 17.8848 21.9897 17.7233L22.4456 17.2718L22.9042 17.462V18.0473C22.9042 18.313 23.0125 18.5541 23.187 18.7285L23.188 18.7275C23.3636 18.9026 23.6043 19.0112 23.8681 19.0112H26.0449V23.6278L22.7682 24.5721C22.7108 24.5885 22.6567 24.6149 22.6086 24.6502H12.4274C12.2933 24.6502 12.1646 24.7035 12.0698 24.7984C11.9749 24.8932 11.9217 25.0218 11.9217 25.156C11.9217 25.2901 11.9749 25.4187 12.0698 25.5136C12.1646 25.6084 12.2933 25.6617 12.4274 25.6617H22.4007V27.2731H12.4274C12.2933 27.2731 12.1646 27.3263 12.0698 27.4212C11.9749 27.516 11.9217 27.6447 11.9217 27.7788C11.9217 27.9129 11.9749 28.0415 12.0698 28.1364C12.1646 28.2312 12.2933 28.2845 12.4274 28.2845V28.2844ZM9.14264 24.5559H5.3198V28.3787H9.14264V26.3555L7.85894 27.6068C7.77285 27.7005 7.65458 27.7582 7.52777 27.7685C7.40097 27.7788 7.27496 27.7408 7.17493 27.6622L5.64344 26.4579C5.53994 26.3745 5.47347 26.2537 5.45846 26.1216C5.44344 25.9895 5.48108 25.8569 5.56322 25.7524C5.64536 25.6479 5.76537 25.58 5.89724 25.5634C6.02911 25.5468 6.1622 25.5829 6.26767 25.6637L7.45194 26.595L9.14264 24.947V24.5557V24.5559ZM4.81408 23.5444C4.67995 23.5444 4.55132 23.5977 4.45648 23.6925C4.36164 23.7874 4.30835 23.916 4.30835 24.0501V28.8844C4.30835 29.0186 4.36164 29.1472 4.45648 29.242C4.55132 29.3369 4.67995 29.3902 4.81408 29.3902H9.64836C9.78249 29.3902 9.91112 29.3369 10.006 29.242C10.1008 29.1472 10.1541 29.0186 10.1541 28.8844V25.3697L10.9007 24.642C10.9482 24.5958 10.9861 24.5408 11.0123 24.4799C11.0385 24.4191 11.0524 24.3537 11.0534 24.2875C11.0543 24.2213 11.0421 24.1555 11.0176 24.094C10.9932 24.0324 10.9568 23.9763 10.9106 23.9289C10.8644 23.8814 10.8094 23.8435 10.7485 23.8173C10.6877 23.7911 10.6223 23.7771 10.5561 23.7762C10.4899 23.7753 10.4241 23.7874 10.3626 23.8119C10.301 23.8364 10.2449 23.8728 10.1975 23.919L10.1474 23.9678C10.1278 23.8496 10.0669 23.7421 9.97552 23.6646C9.88413 23.5871 9.7682 23.5445 9.64836 23.5445H4.81408V23.5444Z" fill="white"/>
</svg>
