<svg width="40" height="37" viewBox="0 0 40 37" fill="none" xmlns="http://www.w3.org/2000/svg">
<path d="M3.10091 31.211H4.40137V29.9105H3.10091C2.38256 29.9105 1.80046 29.3284 1.80046 28.6101V2.60092C1.80046 1.88256 2.38256 1.30046 3.10091 1.30046H31.711C32.4293 1.30046 33.0114 1.88256 33.0114 2.60092V3.90137H34.3119V2.60092C34.3119 1.16454 33.1473 0 31.711 0H3.10091C1.66454 0 0.5 1.16454 0.5 2.60092V28.6101C0.5 30.0464 1.66454 31.211 3.10091 31.211Z" fill="white"/>
<path d="M3.10083 2.60083H4.40129V3.90129H3.10083V2.60083ZM5.70175 2.60083H7.0022V3.90129H5.70175V2.60083ZM8.30266 2.60083H9.60312V3.90129H8.30266V2.60083ZM5.70175 33.8118C5.70175 35.2482 6.86629 36.4127 8.30266 36.4127H36.9127C38.3491 36.4127 39.5136 35.2482 39.5136 33.8118V7.80266C39.5136 6.36629 38.3491 5.20174 36.9127 5.20174H8.30266C6.86629 5.20174 5.70175 6.36629 5.70175 7.80266V33.8118ZM7.0022 7.80266C7.0022 7.08431 7.58431 6.5022 8.30266 6.5022H36.9127C37.6311 6.5022 38.2132 7.08431 38.2132 7.80266V33.8118C38.2132 34.5302 37.6311 35.1123 36.9127 35.1123H8.30266C7.58431 35.1123 7.0022 34.5302 7.0022 33.8118V7.80266Z" fill="white"/>
<path d="M8.30273 7.80273H9.60319V9.10319H8.30273V7.80273ZM10.9036 7.80273H12.2041V9.10319H10.9036V7.80273ZM13.5046 7.80273H14.805V9.10319H13.5046V7.80273ZM8.30273 10.4036H36.9128V11.7041H8.30273V10.4036ZM8.30273 13.6548H13.5046V14.9553H8.30273V13.6548ZM8.30273 16.2557H12.2041V17.5562H8.30273V16.2557ZM22.6078 18.8566C20.0938 18.8566 18.0562 20.8943 18.0562 23.4082C18.0562 25.9222 20.0938 27.9598 22.6078 27.9598C25.1217 27.9598 27.1594 25.9222 27.1594 23.4082C27.1565 20.8957 25.1203 18.8595 22.6078 18.8566ZM22.6078 26.6594C20.8123 26.6594 19.3566 25.2037 19.3566 23.4082C19.3566 21.6128 20.8123 20.1571 22.6078 20.1571C24.4032 20.1571 25.8589 21.6128 25.8589 23.4082C25.8566 25.2029 24.4024 26.6571 22.6078 26.6594Z" fill="white"/>
<path d="M33.0114 21.4576C33.0114 21.0984 32.7205 20.8074 32.3612 20.8074H30.6426C30.5052 20.3801 30.3331 19.9648 30.1283 19.5654L31.3436 18.351C31.5972 18.0969 31.5972 17.6855 31.3436 17.4314L28.5847 14.6725C28.3306 14.4189 27.9192 14.4189 27.6651 14.6725L26.4506 15.8871C26.051 15.683 25.6357 15.5113 25.2087 15.3734V13.6549C25.2087 13.2956 24.9177 13.0046 24.5584 13.0046H20.6571C20.2978 13.0046 20.0068 13.2956 20.0068 13.6549V15.3734C19.5798 15.5113 19.1645 15.683 18.7649 15.8871L17.5505 14.6725C17.2964 14.4189 16.8849 14.4189 16.6309 14.6725L13.8719 17.4314C13.6183 17.6855 13.6183 18.0969 13.8719 18.351L15.0866 19.5654C15.0323 19.6714 14.9803 19.7785 14.9305 19.8867C14.7934 20.1863 14.674 20.4937 14.5729 20.8074H12.8543C12.4951 20.8074 12.2041 21.0984 12.2041 21.4576V25.359C12.2041 25.7182 12.4951 26.0092 12.8543 26.0092H14.5729C14.7104 26.4365 14.8824 26.8518 15.0872 27.2512L13.8719 28.4656C13.6183 28.7197 13.6183 29.1311 13.8719 29.3852L16.6309 32.1441C16.8849 32.3977 17.2964 32.3977 17.5505 32.1441L18.7649 30.9295C19.1645 31.1336 19.5798 31.3053 20.0068 31.4432V33.1617C20.0068 33.521 20.2978 33.812 20.6571 33.812H24.5584C24.9177 33.812 25.2087 33.521 25.2087 33.1617V31.4432C25.6357 31.3053 26.051 31.1336 26.4506 30.9295L27.6651 32.1441C27.9192 32.3977 28.3306 32.3977 28.5847 32.1441L31.3436 29.3852C31.5972 29.1311 31.5972 28.7197 31.3436 28.4656L30.1283 27.2512C30.3332 26.8518 30.5052 26.4365 30.6427 26.0092H32.3612C32.7205 26.0092 33.0114 25.7182 33.0114 25.359V21.4576ZM31.711 24.7088H30.1543C30.0102 24.7088 29.8702 24.7567 29.7562 24.845C29.6423 24.9333 29.5609 25.0569 29.5249 25.1964C29.3588 25.842 29.1027 26.461 28.7641 27.0353C28.6135 27.2905 28.6549 27.6156 28.8643 27.8253L29.9636 28.9253L28.1248 30.765L27.0248 29.6648C26.9228 29.5628 26.7898 29.4977 26.6467 29.4795C26.5036 29.4614 26.3586 29.4913 26.2344 29.5646C25.6603 29.9033 25.0414 30.1594 24.3959 30.3254C24.2563 30.3615 24.1327 30.4429 24.0444 30.5568C23.9562 30.6707 23.9083 30.8107 23.9082 30.9549V32.5115H21.3073V30.9549C21.3073 30.8107 21.2593 30.6707 21.1711 30.5568C21.0828 30.4428 20.9592 30.3615 20.8196 30.3254C20.1741 30.1594 19.5552 29.9033 18.9811 29.5646C18.8569 29.4913 18.7119 29.4614 18.5688 29.4795C18.4257 29.4977 18.2927 29.5628 18.1907 29.6648L17.0907 30.765L15.2519 28.9253L16.3513 27.8253C16.5606 27.6156 16.6021 27.2905 16.4514 27.0353C16.1129 26.461 15.8568 25.842 15.6907 25.1964C15.6546 25.0569 15.5732 24.9332 15.4593 24.845C15.3453 24.7567 15.2053 24.7088 15.0612 24.7088H13.5046V22.1078H15.0612C15.2053 22.1078 15.3454 22.0599 15.4593 21.9716C15.5732 21.8833 15.6546 21.7597 15.6906 21.6202C15.7956 21.2111 15.9371 20.8123 16.1134 20.4285C16.2149 20.2061 16.3278 19.9891 16.4514 19.7783C16.5245 19.6541 16.5543 19.5093 16.5361 19.3664C16.518 19.2235 16.453 19.0907 16.3513 18.9887L15.2519 17.8887L17.0907 16.049L18.1907 17.1495C18.2928 17.2515 18.4258 17.3166 18.5689 17.3346C18.712 17.3527 18.857 17.3226 18.9811 17.2492C19.5553 16.9107 20.1742 16.6546 20.8197 16.4884C20.9592 16.4524 21.0827 16.3711 21.171 16.2572C21.2593 16.1433 21.3072 16.0034 21.3073 15.8593V14.3051H23.9082V15.8617C23.9083 16.0059 23.9562 16.1459 24.0444 16.2598C24.1327 16.3738 24.2563 16.4551 24.3959 16.4912C25.0414 16.6572 25.6603 16.9133 26.2344 17.2519C26.3586 17.3252 26.5037 17.3552 26.6467 17.337C26.7898 17.3189 26.9228 17.2537 27.0248 17.1518L28.1248 16.0516L29.9636 17.8913L28.8643 18.9913C28.6549 19.201 28.6134 19.5261 28.7641 19.7813C29.1027 20.3556 29.3588 20.9746 29.5249 21.6202C29.5609 21.7597 29.6423 21.8833 29.7562 21.9716C29.8702 22.0599 30.0102 22.1078 30.1543 22.1078H31.711V24.7088ZM33.0114 32.5115H36.9128V33.812H33.0114V32.5115Z" fill="white"/>
</svg>
