<svg width="39" height="44" viewBox="0 0 39 44" fill="none" xmlns="http://www.w3.org/2000/svg">
<path d="M19.5001 4.98173C19.302 4.98173 19.112 4.90304 18.9719 4.76295C18.8318 4.62287 18.7531 4.43288 18.7531 4.23478V1.24696C18.7531 1.04885 18.8318 0.858859 18.9719 0.718778C19.112 0.578697 19.302 0.5 19.5001 0.5C19.6982 0.5 19.8882 0.578697 20.0282 0.718778C20.1683 0.858859 20.247 1.04885 20.247 1.24696V4.23478C20.247 4.43288 20.1683 4.62287 20.0282 4.76295C19.8882 4.90304 19.6982 4.98173 19.5001 4.98173ZM12.0305 6.98357C11.8993 6.9837 11.7703 6.94925 11.6566 6.88368C11.5429 6.81812 11.4485 6.72375 11.3829 6.6101L9.88898 4.02264C9.83916 3.93766 9.80664 3.84366 9.7933 3.74606C9.77995 3.64846 9.78605 3.54919 9.81122 3.45395C9.8364 3.35871 9.88017 3.2694 9.94001 3.19115C9.99985 3.11289 10.0746 3.04725 10.1599 2.998C10.2452 2.94874 10.3394 2.91685 10.4371 2.90415C10.5348 2.89145 10.634 2.8982 10.7291 2.92401C10.8241 2.94982 10.9132 2.99418 10.991 3.05454C11.0689 3.11489 11.134 3.19005 11.1827 3.27569L12.6766 5.86314C12.7421 5.97664 12.7767 6.10537 12.7767 6.23643C12.7767 6.36748 12.7423 6.49623 12.6768 6.60976C12.6113 6.72329 12.5172 6.8176 12.4037 6.88321C12.2903 6.94883 12.1616 6.98344 12.0305 6.98357ZM6.56204 12.4513C6.43089 12.4516 6.302 12.417 6.18856 12.3512L3.60036 10.8573C3.4302 10.7575 3.30641 10.5945 3.25599 10.4038C3.20557 10.2131 3.23263 10.0102 3.33126 9.83941C3.42988 9.66859 3.59207 9.54372 3.78242 9.49204C3.97278 9.44036 4.17585 9.46607 4.34732 9.56356L6.93552 11.0575C7.07791 11.1397 7.1892 11.2666 7.25211 11.4185C7.31503 11.5704 7.32607 11.7388 7.28351 11.8977C7.24096 12.0565 7.14718 12.1968 7.01674 12.2969C6.88629 12.397 6.72647 12.4513 6.56204 12.4513ZM4.56095 19.9208H1.57313C1.37502 19.9208 1.18503 19.8421 1.04495 19.7021C0.904869 19.562 0.826172 19.372 0.826172 19.1739C0.826172 18.9758 0.904869 18.7858 1.04495 18.6457C1.18503 18.5056 1.37502 18.4269 1.57313 18.4269H4.56095C4.75905 18.4269 4.94904 18.5056 5.08913 18.6457C5.22921 18.7858 5.3079 18.9758 5.3079 19.1739C5.3079 19.372 5.22921 19.562 5.08913 19.7021C4.94904 19.8421 4.75905 19.9208 4.56095 19.9208ZM3.97534 28.8843C3.81091 28.8843 3.65108 28.83 3.52064 28.7299C3.39019 28.6298 3.29642 28.4895 3.25387 28.3307C3.21131 28.1719 3.22235 28.0034 3.28526 27.8515C3.34818 27.6996 3.45947 27.5727 3.60186 27.4905L6.19006 25.9966C6.27504 25.9468 6.36904 25.9142 6.46664 25.9009C6.56424 25.8875 6.66351 25.8936 6.75875 25.9188C6.85399 25.944 6.9433 25.9878 7.02155 26.0476C7.09981 26.1074 7.16545 26.1822 7.2147 26.2675C7.26396 26.3528 7.29585 26.447 7.30855 26.5447C7.32125 26.6424 7.3145 26.7416 7.28869 26.8367C7.26288 26.9317 7.21852 27.0208 7.15816 27.0986C7.09781 27.1765 7.02265 27.2416 6.93701 27.2903L4.34881 28.7842C4.23537 28.85 4.10649 28.8846 3.97534 28.8843ZM35.0248 28.8843C34.8936 28.8846 34.7647 28.85 34.6513 28.7842L32.0631 27.2903C31.9775 27.2416 31.9023 27.1765 31.842 27.0986C31.7816 27.0208 31.7372 26.9317 31.7114 26.8367C31.6856 26.7416 31.6789 26.6424 31.6916 26.5447C31.7043 26.447 31.7362 26.3528 31.7854 26.2675C31.8347 26.1822 31.9003 26.1074 31.9786 26.0476C32.0568 25.9878 32.1461 25.944 32.2414 25.9188C32.3366 25.8936 32.4359 25.8875 32.5335 25.9009C32.6311 25.9142 32.7251 25.9468 32.8101 25.9966L35.3983 27.4905C35.5406 27.5727 35.6519 27.6996 35.7149 27.8515C35.7778 28.0034 35.7888 28.1719 35.7463 28.3307C35.7037 28.4895 35.6099 28.6298 35.4795 28.7299C35.349 28.83 35.1892 28.8843 35.0248 28.8843ZM37.427 19.9208H34.4392C34.2411 19.9208 34.0511 19.8421 33.911 19.7021C33.7709 19.562 33.6922 19.372 33.6922 19.1739C33.6922 18.9758 33.7709 18.7858 33.911 18.6457C34.0511 18.5056 34.2411 18.4269 34.4392 18.4269H37.427C37.6251 18.4269 37.8151 18.5056 37.9552 18.6457C38.0952 18.7858 38.1739 18.9758 38.1739 19.1739C38.1739 19.372 38.0952 19.562 37.9552 19.7021C37.8151 19.8421 37.6251 19.9208 37.427 19.9208Z" fill="white"/>
<path d="M31.4513 18.4269H27.7166C27.7166 17.6345 27.4018 16.8745 26.8415 16.3142C26.2811 15.7538 25.5212 15.4391 24.7287 15.4391C23.9363 15.4391 23.1764 15.7538 22.616 16.3142C22.0557 16.8745 21.7409 17.6345 21.7409 18.4269H20.247V16.0486C20.2469 15.9291 20.2182 15.8115 20.1632 15.7055C20.1082 15.5995 20.0287 15.5082 19.9311 15.4392C19.8336 15.3703 19.721 15.3258 19.6027 15.3094C19.4844 15.293 19.3639 15.3052 19.2513 15.3449C19.0254 15.4292 18.7824 15.4575 18.5431 15.4274C18.3039 15.3973 18.0754 15.3098 17.8774 15.1722C17.6793 15.0347 17.5174 14.8512 17.4057 14.6375C17.2939 14.4238 17.2355 14.1863 17.2355 13.9451C17.2355 13.704 17.2939 13.4664 17.4057 13.2527C17.5174 13.0391 17.6793 12.8556 17.8774 12.7181C18.0754 12.5805 18.3039 12.493 18.5431 12.4629C18.7824 12.4328 19.0254 12.4611 19.2513 12.5453C19.3639 12.5851 19.4844 12.5973 19.6027 12.5809C19.721 12.5645 19.8336 12.5199 19.9311 12.451C20.0287 12.3821 20.1082 12.2908 20.1632 12.1848C20.2182 12.0788 20.2469 11.9611 20.247 11.8417V7.22254C20.247 7.02444 20.1683 6.83445 20.0282 6.69436C19.8882 6.55428 19.6982 6.47559 19.5001 6.47559C16.5988 6.4782 13.786 7.4742 11.5296 9.29785C9.2732 11.1215 7.70931 13.6628 7.09817 16.499C6.48704 19.3351 6.8655 22.2949 8.17059 24.886C9.47569 27.4771 11.6287 29.5432 14.2714 30.7404V31.8721H13.5244C12.9301 31.8721 12.3601 32.1082 11.9399 32.5284C11.5196 32.9486 11.2835 33.5186 11.2835 34.1129V35.6068C11.2835 36.2012 11.5196 36.7711 11.9399 37.1914C12.3601 37.6116 12.9301 37.8477 13.5244 37.8477H14.2714V40.0886C14.2726 41.0787 14.6664 42.028 15.3666 42.7282C16.0667 43.4283 17.016 43.8222 18.0061 43.8234H20.994C21.9841 43.8222 22.9334 43.4283 23.6335 42.7282C24.3337 42.028 24.7276 41.0787 24.7287 40.0886V37.8477H25.4757C26.07 37.8477 26.64 37.6116 27.0602 37.1914C27.4805 36.7711 27.7166 36.2012 27.7166 35.6068V34.1129C27.7166 33.5186 27.4805 32.9486 27.0602 32.5284C26.64 32.1082 26.07 31.8721 25.4757 31.8721H24.7287V30.7404C26.9585 29.7406 28.8506 28.116 30.1763 26.0632C31.502 24.0104 32.2043 21.6174 32.1983 19.1738C32.1983 18.9757 32.1196 18.7857 31.9795 18.6456C31.8394 18.5056 31.6494 18.4269 31.4513 18.4269ZM18.7531 7.99415V10.9573C17.9607 10.9573 17.2007 11.2721 16.6404 11.8324C16.0801 12.3928 15.7653 13.1527 15.7653 13.9451C15.7653 14.7376 16.0801 15.4975 16.6404 16.0578C17.2007 16.6182 17.9607 16.933 18.7531 16.933V18.4269H16.3748C16.2553 18.4269 16.1375 18.4557 16.0314 18.5107C15.9253 18.5657 15.834 18.6453 15.7651 18.743C15.6961 18.8406 15.6516 18.9533 15.6353 19.0717C15.6189 19.1901 15.6312 19.3107 15.6712 19.4233C15.7554 19.6493 15.7837 19.8923 15.7536 20.1315C15.7235 20.3708 15.636 20.5992 15.4984 20.7973C15.3609 20.9953 15.1774 21.1572 14.9638 21.2689C14.7501 21.3807 14.5125 21.4391 14.2714 21.4391C14.0302 21.4391 13.7927 21.3807 13.579 21.2689C13.3653 21.1572 13.1818 20.9953 13.0443 20.7973C12.9068 20.5992 12.8192 20.3708 12.7891 20.1315C12.759 19.8923 12.7873 19.6493 12.8716 19.4233C12.9115 19.3107 12.9238 19.1901 12.9075 19.0717C12.8911 18.9533 12.8466 18.8406 12.7777 18.743C12.7087 18.6453 12.6174 18.5657 12.5113 18.5107C12.4052 18.4557 12.2874 18.4269 12.1679 18.4269H8.32037C8.50476 15.7207 9.66312 13.1729 11.5811 11.2549C13.4991 9.3369 16.0469 8.17854 18.7531 7.99415ZM15.2984 29.5565C13.3451 28.7722 11.6535 27.4511 10.4192 25.746C9.18496 24.0409 8.45835 22.0214 8.32336 19.9208H11.2835C11.2835 20.7132 11.5983 21.4732 12.1587 22.0335C12.719 22.5938 13.4789 22.9086 14.2714 22.9086C15.0638 22.9086 15.8238 22.5938 16.3841 22.0335C16.9444 21.4732 17.2592 20.7132 17.2592 19.9208H18.7531V22.2991C18.7532 22.4185 18.782 22.5362 18.8369 22.6422C18.8919 22.7482 18.9715 22.8395 19.069 22.9084C19.1665 22.9773 19.2791 23.0219 19.3974 23.0383C19.5157 23.0547 19.6362 23.0425 19.7488 23.0027C19.9747 22.9185 20.2177 22.8902 20.457 22.9203C20.6963 22.9503 20.9247 23.0379 21.1228 23.1754C21.3208 23.313 21.4827 23.4964 21.5944 23.7101C21.7062 23.9238 21.7646 24.1614 21.7646 24.4025C21.7646 24.6437 21.7062 24.8812 21.5944 25.0949C21.4827 25.3086 21.3208 25.492 21.1228 25.6296C20.9247 25.7671 20.6963 25.8547 20.457 25.8848C20.2177 25.9148 19.9747 25.8865 19.7488 25.8023C19.6362 25.7625 19.5157 25.7504 19.3974 25.7668C19.2791 25.7832 19.1665 25.8277 19.069 25.8966C18.9715 25.9655 18.8919 26.0568 18.8369 26.1629C18.782 26.2689 18.7532 26.3865 18.7531 26.5059V31.8721H15.7653V30.2482C15.7651 30.0995 15.7206 29.9543 15.6375 29.8311C15.5543 29.7079 15.4362 29.6123 15.2984 29.5565ZM23.2348 40.0886C23.2348 40.6829 22.9987 41.2529 22.5785 41.6731C22.1583 42.0934 21.5883 42.3294 20.994 42.3294H18.0061C17.4118 42.3294 16.8419 42.0934 16.4216 41.6731C16.0014 41.2529 15.7653 40.6829 15.7653 40.0886V37.8477H17.2592V40.0886C17.2592 40.2867 17.3379 40.4767 17.478 40.6168C17.618 40.7568 17.808 40.8355 18.0061 40.8355C18.2043 40.8355 18.3942 40.7568 18.5343 40.6168C18.6744 40.4767 18.7531 40.2867 18.7531 40.0886V37.8477H20.247V40.0886C20.247 40.2867 20.3257 40.4767 20.4658 40.6168C20.6059 40.7568 20.7959 40.8355 20.994 40.8355C21.1921 40.8355 21.3821 40.7568 21.5221 40.6168C21.6622 40.4767 21.7409 40.2867 21.7409 40.0886V37.8477H23.2348V40.0886ZM25.4757 33.366C25.6738 33.366 25.8638 33.4447 26.0039 33.5848C26.144 33.7248 26.2227 33.9148 26.2227 34.1129V35.6068C26.2227 35.805 26.144 35.9949 26.0039 36.135C25.8638 36.2751 25.6738 36.3538 25.4757 36.3538H13.5244C13.3263 36.3538 13.1363 36.2751 12.9962 36.135C12.8562 35.9949 12.7775 35.805 12.7775 35.6068V34.1129C12.7775 33.9148 12.8562 33.7248 12.9962 33.5848C13.1363 33.4447 13.3263 33.366 13.5244 33.366H25.4757ZM23.7017 29.5565C23.5638 29.6123 23.4456 29.708 23.3624 29.8314C23.2793 29.9548 23.2348 30.1001 23.2348 30.2489V31.8721H20.247V27.3903C21.0394 27.3903 21.7994 27.0755 22.3597 26.5152C22.92 25.9549 23.2348 25.1949 23.2348 24.4025C23.2348 23.6101 22.92 22.8501 22.3597 22.2898C21.7994 21.7295 21.0394 21.4147 20.247 21.4147V19.9208H22.6253C22.7448 19.9207 22.8626 19.892 22.9687 19.837C23.0748 19.782 23.1661 19.7023 23.2351 19.6047C23.304 19.5071 23.3485 19.3943 23.3648 19.276C23.3812 19.1576 23.3689 19.037 23.3289 18.9243C23.2447 18.6984 23.2164 18.4554 23.2465 18.2161C23.2766 17.9769 23.3641 17.7485 23.5017 17.5504C23.6392 17.3523 23.8227 17.1905 24.0364 17.0787C24.25 16.9669 24.4876 16.9086 24.7287 16.9086C24.9699 16.9086 25.2075 16.9669 25.4211 17.0787C25.6348 17.1905 25.8183 17.3523 25.9558 17.5504C26.0934 17.7485 26.1809 17.9769 26.211 18.2161C26.2411 18.4554 26.2128 18.6984 26.1285 18.9243C26.0886 19.037 26.0763 19.1576 26.0927 19.276C26.109 19.3943 26.1535 19.5071 26.2224 19.6047C26.2914 19.7023 26.3827 19.782 26.4888 19.837C26.5949 19.892 26.7127 19.9207 26.8322 19.9208H30.6797C30.5441 22.0216 29.817 24.0413 28.5822 25.7463C27.3474 27.4514 25.6554 28.7723 23.7017 29.5565Z" fill="white"/>
<path d="M25.4757 0.5C25.2776 0.5 25.0876 0.578697 24.9476 0.718778C24.8075 0.858859 24.7288 1.04885 24.7288 1.24696V4.98173C23.9364 4.98173 23.1764 5.29652 22.6161 5.85685C22.0558 6.41717 21.741 7.17713 21.741 7.96955C21.741 8.76197 22.0558 9.52194 22.6161 10.0823C23.1764 10.6426 23.9364 10.9574 24.7288 10.9574V13.1982C24.7288 13.3963 24.8075 13.5863 24.9476 13.7264C25.0876 13.8665 25.2776 13.9452 25.4757 13.9452H28.601C28.7205 13.9451 28.8383 13.9164 28.9444 13.8614C29.0505 13.8064 29.1418 13.7267 29.2107 13.6291C29.2797 13.5315 29.3242 13.4187 29.3405 13.3004C29.3569 13.182 29.3446 13.0614 29.3046 12.9488C29.2204 12.7228 29.1921 12.4798 29.2222 12.2406C29.2523 12.0013 29.3398 11.7729 29.4774 11.5748C29.6149 11.3767 29.7984 11.2149 30.012 11.1031C30.2257 10.9914 30.4633 10.933 30.7044 10.933C30.9456 10.933 31.1831 10.9914 31.3968 11.1031C31.6105 11.2149 31.794 11.3767 31.9315 11.5748C32.069 11.7729 32.1566 12.0013 32.1867 12.2406C32.2168 12.4798 32.1885 12.7228 32.1042 12.9488C32.0643 13.0614 32.052 13.182 32.0683 13.3004C32.0847 13.4187 32.1292 13.5315 32.1981 13.6291C32.2671 13.7267 32.3584 13.8064 32.4645 13.8614C32.5706 13.9164 32.6884 13.9451 32.8079 13.9452H37.427C37.6251 13.9452 37.8151 13.8665 37.9552 13.7264C38.0953 13.5863 38.174 13.3963 38.174 13.1982C38.1702 9.83161 36.8312 6.60395 34.4506 4.22338C32.07 1.84281 28.8424 0.503756 25.4757 0.5ZM33.6923 12.4513C33.6923 11.6589 33.3775 10.8989 32.8171 10.3386C32.2568 9.77825 31.4969 9.46347 30.7044 9.46347C29.912 9.46347 29.152 9.77825 28.5917 10.3386C28.0314 10.8989 27.7166 11.6589 27.7166 12.4513H26.2227V10.073C26.2226 9.95356 26.1938 9.83591 26.1389 9.7299C26.0839 9.62388 26.0043 9.53258 25.9068 9.46366C25.8093 9.39474 25.6967 9.35021 25.5784 9.3338C25.4601 9.31739 25.3396 9.32958 25.227 9.36935C25.0011 9.45359 24.7581 9.48188 24.5188 9.4518C24.2795 9.42172 24.0511 9.33417 23.853 9.19662C23.655 9.05908 23.4931 8.87563 23.3814 8.66195C23.2696 8.44826 23.2112 8.2107 23.2112 7.96955C23.2112 7.72841 23.2696 7.49085 23.3814 7.27716C23.4931 7.06348 23.655 6.88003 23.853 6.74249C24.0511 6.60494 24.2795 6.51739 24.5188 6.48731C24.7581 6.45723 25.0011 6.48552 25.227 6.56976C25.3396 6.60953 25.4601 6.62172 25.5784 6.60531C25.6967 6.5889 25.8093 6.54436 25.9068 6.47545C26.0043 6.40653 26.0839 6.31523 26.1389 6.20921C26.1938 6.1032 26.2226 5.98555 26.2227 5.86613V2.01856C28.9289 2.20295 31.4767 3.36131 33.3947 5.27931C35.3127 7.1973 36.471 9.74511 36.6554 12.4513H33.6923Z" fill="white"/>
</svg>
