<svg width="45" height="43" viewBox="0 0 45 43" fill="none" xmlns="http://www.w3.org/2000/svg">
<path d="M22.2769 25.3499C24.4256 25.3499 26.1725 23.6029 26.1725 21.4542C26.1725 19.3056 24.4256 17.5586 22.2769 17.5586C20.1282 17.5586 18.3813 19.3056 18.3813 21.4542C18.3813 23.6029 20.1282 25.3499 22.2769 25.3499ZM22.2769 18.5264C23.8932 18.5264 25.2047 19.8379 25.2047 21.4542C25.2047 23.0705 23.8932 24.382 22.2769 24.382C20.6606 24.382 19.3491 23.0705 19.3491 21.4542C19.3491 19.8379 20.6606 18.5264 22.2769 18.5264ZM22.2769 9.65598C24.803 9.65598 26.8549 7.60411 26.8549 5.07799C26.8549 2.55187 24.803 0.5 22.2769 0.5C19.7508 0.5 17.6989 2.55187 17.6989 5.07799C17.6989 7.60411 19.7508 9.65598 22.2769 9.65598ZM18.991 6.56366H19.6298C19.6782 6.95564 19.7459 7.34279 19.8379 7.72993C19.4806 7.40162 19.1926 7.00506 18.991 6.56366ZM25.887 5.07799C25.887 5.25704 25.8677 5.42642 25.8435 5.59579H25.0208C25.0353 5.24253 25.0353 4.88442 25.0208 4.52631H25.8435C25.8725 4.70536 25.8919 4.88926 25.8919 5.07315L25.887 5.07799ZM24.0529 5.59579H22.7608V4.52631H24.0481C24.0674 4.88442 24.0674 5.23769 24.0481 5.59579H24.0529ZM21.0429 8.46551C20.8396 7.8364 20.6944 7.20245 20.6025 6.56366H21.793V8.6494C21.5316 8.61552 21.2848 8.55261 21.0429 8.46551ZM22.7608 6.56366H23.961C23.869 7.20245 23.7239 7.8364 23.5109 8.46551C23.269 8.55261 23.0222 8.61552 22.7608 8.6494V6.56366ZM22.7608 3.55844V1.50174C23.0222 1.53561 23.269 1.59852 23.5109 1.68563C23.7142 2.3099 23.8594 2.93417 23.9513 3.55844H22.7608ZM21.793 3.55844H20.6122C20.7041 2.93417 20.8445 2.3099 21.0429 1.68563C21.28 1.59852 21.5316 1.53561 21.793 1.50174V3.55844ZM21.793 4.52631V5.59579H20.5154C20.5009 5.24253 20.5009 4.88442 20.5154 4.52631H21.7881H21.793ZM19.5475 5.59579H18.7103C18.6861 5.42642 18.6668 5.2522 18.6668 5.07799C18.6668 4.88926 18.6861 4.7102 18.7152 4.53115H19.5524C19.533 4.88926 19.533 5.24253 19.5524 5.60063L19.5475 5.59579ZM24.7304 7.72025C24.8224 7.33795 24.8901 6.9508 24.9385 6.56366H25.5628C25.3644 7.00403 25.0789 7.39602 24.7256 7.72025H24.7304ZM25.5531 3.55844H24.9288C24.8756 3.18098 24.8079 2.80351 24.7208 2.42121C25.0692 2.7406 25.3499 3.12291 25.5531 3.55844ZM19.8476 2.41637C19.7605 2.79867 19.6927 3.18098 19.6443 3.55844H19.0104C19.2136 3.12291 19.4991 2.73576 19.8476 2.41637ZM9.45273 21.9381C10.6529 21.9381 11.6304 20.9606 11.6304 19.7556C11.6304 19.0926 11.311 18.4684 10.7835 18.057C10.7835 16.852 9.80599 15.8745 8.60585 15.8745C8.39292 15.8745 8.18483 15.9084 7.98157 15.981C7.50248 14.9066 6.42332 14.1759 5.21833 14.1759C3.54877 14.1759 2.19376 15.5357 2.19376 17.2101C2.19376 17.3456 2.20344 17.486 2.22279 17.6215C1.73515 17.7271 1.29834 17.9964 0.984931 18.3846C0.671526 18.7729 0.500403 19.2567 0.5 19.7556C0.5 20.9606 1.47754 21.9381 2.67769 21.9381H9.45273ZM1.46786 19.7556C1.46786 19.4343 1.59517 19.1261 1.82192 18.8984C2.04867 18.6708 2.35638 18.5422 2.67769 18.541H2.83255C2.98741 18.541 3.13742 18.4635 3.22937 18.3377C3.32132 18.207 3.34068 18.0425 3.29228 17.8973C3.20517 17.6554 3.16646 17.4279 3.16646 17.2101C3.16646 16.0729 4.09077 15.1438 5.22317 15.1438C6.18135 15.1438 7.02339 15.8261 7.23148 16.7649C7.26536 16.9198 7.37182 17.0504 7.52184 17.1085C7.67186 17.1666 7.8364 17.1521 7.9719 17.065C8.20418 16.9149 8.40743 16.8424 8.61552 16.8424C9.28335 16.8424 9.82535 17.3892 9.82051 18.0619C9.80599 18.1103 9.79632 18.1635 9.78664 18.2167C9.7576 18.4151 9.85439 18.6135 10.0334 18.7103C10.4351 18.9329 10.6771 19.3249 10.6771 19.7556C10.6771 20.0769 10.5498 20.3852 10.323 20.6128C10.0963 20.8405 9.78855 20.969 9.46724 20.9703H2.67769C2.35638 20.969 2.04867 20.8405 1.82192 20.6128C1.59517 20.3852 1.46786 20.0769 1.46786 19.7556ZM43.5699 14.6598H37.2788C37.0126 14.6598 36.7948 14.8776 36.7948 15.1438V16.1116H35.343C35.0769 16.1116 34.8591 16.3294 34.8591 16.5955V24.8224C34.8591 25.0885 35.0769 25.3063 35.343 25.3063H42.1181C42.3842 25.3063 42.602 25.0885 42.602 24.8224V23.8545H43.5699C43.836 23.8545 44.0538 23.6367 44.0538 23.3706V15.1438C44.0538 14.8776 43.836 14.6598 43.5699 14.6598ZM41.6341 24.3384H35.827V17.0795H40.2259L41.6341 18.4442V24.3384ZM43.0859 22.8867H42.602V18.2409C42.602 18.1103 42.5488 17.9844 42.4568 17.8925L40.7631 16.2471C40.6711 16.16 40.5501 16.1116 40.4243 16.1116H37.7627V15.6277H43.0859V22.8867Z" fill="white"/>
<path d="M36.3108 19.983C36.3108 20.2492 36.5286 20.467 36.7947 20.467H40.6662C40.9324 20.467 41.1501 20.2492 41.1501 19.983C41.1501 19.7169 40.9324 19.4991 40.6662 19.4991H36.7947C36.5286 19.4991 36.3108 19.7169 36.3108 19.983ZM40.6662 20.9509H36.7947C36.5286 20.9509 36.3108 21.1687 36.3108 21.4348C36.3108 21.701 36.5286 21.9188 36.7947 21.9188H40.6662C40.9324 21.9188 41.1501 21.701 41.1501 21.4348C41.1501 21.1687 40.9324 20.9509 40.6662 20.9509ZM7.84599 13.6823C7.92341 13.7258 8.00568 13.7452 8.08795 13.7452C8.25733 13.7452 8.41702 13.6581 8.50897 13.5032C8.66867 13.2322 8.8332 12.966 9.00258 12.7047C9.07381 12.5976 9.09956 12.4665 9.07414 12.3403C9.04873 12.2142 8.97425 12.1033 8.86708 12.0321C8.75991 11.9608 8.62883 11.9351 8.50268 11.9605C8.37654 11.9859 8.26565 12.0604 8.19442 12.1676C8.01052 12.4434 7.83631 12.7289 7.66693 13.0193C7.53143 13.2516 7.6137 13.5468 7.84115 13.6823H7.84599ZM9.60265 11.5626C9.743 11.5626 9.88334 11.5046 9.97528 11.3836C10.3189 10.9626 10.6915 10.5512 11.0835 10.1689C11.1283 10.1241 11.1638 10.0709 11.1881 10.0124C11.2123 9.95386 11.2248 9.89112 11.2248 9.82775C11.2248 9.76439 11.2123 9.70165 11.1881 9.64311C11.1638 9.58458 11.1283 9.53139 11.0835 9.48658C11.0387 9.44178 10.9855 9.40624 10.927 9.38199C10.8684 9.35775 10.8057 9.34527 10.7423 9.34527C10.679 9.34527 10.6162 9.35775 10.5577 9.38199C10.4991 9.40624 10.4459 9.44178 10.4011 9.48658C9.9898 9.89792 9.59298 10.3286 9.22519 10.7787C9.18472 10.8279 9.15436 10.8846 9.13586 10.9455C9.11735 11.0065 9.11107 11.0705 9.11736 11.1339C9.12366 11.1973 9.14241 11.2588 9.17254 11.315C9.20267 11.3711 9.24358 11.4207 9.29294 11.461C9.38489 11.5336 9.49135 11.5723 9.59782 11.5723L9.60265 11.5626ZM12.0078 9.17687C12.1143 9.17687 12.2207 9.14299 12.3127 9.0704C12.7385 8.72681 13.1886 8.40258 13.6435 8.10738C13.8661 7.9622 13.9338 7.66216 13.7838 7.43955C13.6338 7.21695 13.3386 7.1492 13.116 7.29438C12.6321 7.60893 12.1578 7.95252 11.7029 8.31547C11.6252 8.37857 11.5689 8.46419 11.5417 8.56057C11.5146 8.65695 11.518 8.75937 11.5514 8.85376C11.5848 8.94815 11.6466 9.02988 11.7283 9.08773C11.81 9.14559 11.9077 9.17672 12.0078 9.17687ZM14.8485 7.33793C14.9211 7.33793 14.9985 7.31857 15.0662 7.2847C15.3469 7.14436 15.6276 7.00886 15.9131 6.88303C16.1599 6.77657 16.2712 6.49105 16.1648 6.24425C16.0583 6.00228 15.7728 5.88614 15.526 5.9926C15.2211 6.1281 14.9211 6.26844 14.6259 6.41846C14.3887 6.53944 14.2919 6.8298 14.4129 7.07177C14.5 7.24114 14.6694 7.33793 14.8436 7.33793H14.8485ZM36.0446 13.5081C36.1318 13.6629 36.2963 13.75 36.4657 13.75C36.5479 13.75 36.6302 13.7307 36.7076 13.6871C36.9399 13.5516 37.0174 13.2564 36.8819 13.0241C36.7173 12.7338 36.5383 12.4531 36.3544 12.1724C36.3192 12.1192 36.2739 12.0735 36.221 12.0379C36.1681 12.0022 36.1087 11.9774 36.0462 11.9648C35.9837 11.9522 35.9193 11.9521 35.8568 11.9645C35.7942 11.9769 35.7347 12.0015 35.6817 12.0369C35.4591 12.1821 35.3962 12.4821 35.5462 12.7096C35.7204 12.9709 35.885 13.237 36.0398 13.5081H36.0446ZM30.9101 8.10738C31.3699 8.40258 31.8151 8.72681 32.2409 9.0704C32.3413 9.1506 32.4693 9.18796 32.597 9.17437C32.7248 9.16078 32.842 9.09733 32.9233 8.99781C33.0927 8.78972 33.0588 8.48485 32.8507 8.31547C32.3958 7.95252 31.9216 7.60893 31.4376 7.29438C31.3844 7.2597 31.3247 7.23594 31.2622 7.22447C31.1997 7.213 31.1355 7.21404 31.0734 7.22755C31.0113 7.24105 30.9525 7.26674 30.9004 7.30313C30.8482 7.33952 30.8039 7.38589 30.7698 7.43955C30.7002 7.54683 30.6759 7.67728 30.7022 7.80241C30.7285 7.92755 30.8033 8.03718 30.9101 8.10738ZM34.5783 11.3836C34.6234 11.4391 34.6801 11.484 34.7446 11.5149C34.809 11.5459 34.8795 11.5622 34.951 11.5626C35.0574 11.5626 35.1687 11.5288 35.2558 11.4513C35.3052 11.4111 35.3461 11.3614 35.3762 11.3053C35.4064 11.2492 35.4251 11.1876 35.4314 11.1242C35.4377 11.0608 35.4314 10.9968 35.4129 10.9359C35.3944 10.8749 35.3641 10.8182 35.3236 10.769C34.9558 10.3238 34.5638 9.88825 34.1476 9.47691C34.1028 9.4321 34.0496 9.39656 33.9911 9.37231C33.9326 9.34807 33.8698 9.33559 33.8065 9.33559C33.7431 9.33559 33.6804 9.34807 33.6218 9.37231C33.5633 9.39656 33.5101 9.4321 33.4653 9.47691C33.4205 9.52171 33.385 9.5749 33.3607 9.63344C33.3365 9.69197 33.324 9.75472 33.324 9.81808C33.324 9.88144 33.3365 9.94418 33.3607 10.0027C33.385 10.0613 33.4205 10.1144 33.4653 10.1592C33.8524 10.5464 34.2251 10.9529 34.5735 11.3739L34.5783 11.3836ZM28.6357 6.88303C28.9212 7.00886 29.2067 7.14436 29.4825 7.2847C29.5551 7.31857 29.6277 7.33793 29.7003 7.33793C29.8095 7.33761 29.9153 7.30054 30.0008 7.23272C30.0863 7.16489 30.1465 7.07025 30.1717 6.96404C30.1968 6.85784 30.1855 6.74626 30.1395 6.64728C30.0935 6.54831 30.0155 6.4677 29.9181 6.41846C29.6229 6.26844 29.3228 6.1281 29.018 5.9926C28.7712 5.88614 28.4856 5.99744 28.3792 6.24425C28.2727 6.49105 28.3792 6.77657 28.6308 6.88303H28.6357ZM31.7957 26.7145C30.2762 27.8034 24.8707 33.3347 24.6529 33.5573C23.8553 34.3157 22.7967 34.7384 21.6961 34.7381H17.0649C16.8084 34.7381 15.9663 34.651 15.9663 33.5912C15.9663 32.5314 16.9003 32.4685 17.0891 32.4636H21.9284C22.6785 32.4298 24.1012 31.9313 24.1012 30.2908C24.1012 29.7439 23.9319 29.3326 23.6754 29.0277C24.6626 28.8342 25.6256 28.4712 26.2886 28.0889L26.9177 28.7325C27.0968 28.9164 27.4258 28.9164 27.6097 28.7325L29.2696 27.0339C29.4535 26.8452 29.4535 26.5452 29.2696 26.3564L28.6405 25.7128C29.1051 24.9675 29.4342 24.1545 29.6229 23.2883H30.5036C30.7698 23.2883 30.9876 23.0705 30.9876 22.8044V20.4041C30.9876 20.1379 30.7698 19.9201 30.5036 19.9201H29.6229C29.4342 19.0539 29.1051 18.2457 28.6405 17.4956L29.2696 16.852C29.4535 16.6633 29.4535 16.3632 29.2696 16.1745L27.6097 14.4759C27.4307 14.292 27.1016 14.292 26.9177 14.4759L26.2983 15.1099C25.5724 14.6404 24.7787 14.3065 23.9367 14.113V13.2032C23.9367 12.937 23.7189 12.7192 23.4528 12.7192H21.1009C20.8347 12.7192 20.6169 12.937 20.6169 13.2032V14.113C19.7749 14.3065 18.9812 14.6404 18.2553 15.1099L17.6359 14.4759C17.4569 14.292 17.1278 14.292 16.9439 14.4759L15.284 16.1745C15.1001 16.3632 15.1001 16.6633 15.284 16.852L15.9131 17.4956C15.4485 18.2409 15.1195 19.0539 14.9307 19.9201H14.05C13.7838 19.9201 13.5661 20.1379 13.5661 20.4041V22.8044C13.5661 23.0705 13.7838 23.2883 14.05 23.2883H14.9307C15.1195 24.1545 15.4485 24.9627 15.9131 25.7128L15.284 26.3564C15.1001 26.5452 15.1001 26.8452 15.284 27.0339L16.2422 28.0115C15.9228 27.8808 15.5937 27.6969 15.2598 27.4501C14.4748 26.8631 13.5203 26.5472 12.5401 26.55H12.0949C10.9867 26.55 9.91237 26.9565 9.08001 27.6921L1.63231 34.2639C1.53068 34.351 1.47261 34.4768 1.46777 34.6123C1.46777 34.7429 1.51133 34.8736 1.60811 34.9704L8.63963 42.1084C8.68445 42.1541 8.7379 42.1905 8.79688 42.2154C8.85586 42.2403 8.9192 42.2533 8.98322 42.2536C9.11388 42.2536 9.23971 42.2003 9.32681 42.1035L10.8706 40.4969C11.3624 40.0471 12.0043 39.7969 12.6708 39.7952H23.7915C24.8562 39.7952 25.8676 39.3306 26.5548 38.5224L33.654 30.6295C35.1639 28.8729 35.0332 27.5179 34.409 26.8307C33.7702 26.1338 32.6717 26.0854 31.7909 26.7194L31.7957 26.7145ZM15.8115 22.7269C15.7728 22.4946 15.5695 22.3204 15.3324 22.3204H14.5339V20.888H15.3324C15.4476 20.8883 15.5591 20.8476 15.6469 20.7731C15.7347 20.6986 15.7931 20.5952 15.8115 20.4815C15.976 19.4749 16.3535 18.5409 16.9342 17.7134C17.0697 17.5247 17.0455 17.2634 16.881 17.0988L16.3099 16.5133L17.2923 15.5067L17.8537 16.0777C18.0231 16.2519 18.2892 16.2713 18.4828 16.131C19.291 15.5406 20.2007 15.1583 21.188 14.9889C21.3008 14.9694 21.403 14.9106 21.4765 14.8229C21.5501 14.7352 21.5902 14.6242 21.5896 14.5098V13.6871H22.9737V14.5098C22.9737 14.7469 23.143 14.9453 23.3753 14.9889C24.3577 15.1583 25.2675 15.5406 26.0805 16.131C26.2741 16.2713 26.5451 16.2519 26.7096 16.0777L27.271 15.5067L28.2534 16.5133L27.6823 17.0988C27.6033 17.1791 27.5548 17.2844 27.5451 17.3965C27.5354 17.5087 27.5651 17.6208 27.6291 17.7134C28.2098 18.5409 28.5873 19.4749 28.7518 20.4815C28.7905 20.7138 28.9938 20.888 29.2309 20.888H30.0294V22.3204H29.2309C29.1157 22.3201 29.0042 22.3609 28.9164 22.4354C28.8286 22.5099 28.7702 22.6133 28.7518 22.7269C28.5873 23.7335 28.2098 24.6675 27.6291 25.495C27.4936 25.6838 27.5178 25.9451 27.6823 26.1096L28.2534 26.6952L27.271 27.7017L26.7096 27.1307C26.5402 26.9613 26.2741 26.9371 26.0805 27.0775C24.2174 28.3841 20.4863 28.7858 18.4876 27.0775C18.2941 26.9371 18.0279 26.9613 17.8585 27.1307L17.2972 27.7017L16.3148 26.6952L16.8858 26.1096C16.9648 26.0294 17.0133 25.9241 17.0231 25.8119C17.0328 25.6997 17.0031 25.5877 16.9391 25.495C16.3583 24.6675 15.9809 23.7335 15.8163 22.7269H15.8115ZM32.933 29.9859L25.8337 37.8788C25.5835 38.1736 25.272 38.4102 24.921 38.5724C24.57 38.7345 24.1878 38.8182 23.8012 38.8176H12.6756C11.7658 38.8176 10.8948 39.1564 10.1979 39.7952L8.97838 41.0631L2.6534 34.6462L9.7188 28.4131C10.3744 27.8331 11.2196 27.513 12.0949 27.513H12.5401C13.3144 27.513 14.0548 27.7598 14.6791 28.2244C15.5647 28.8825 16.4261 29.2019 17.3214 29.2019H21.8606C22.0736 29.2019 23.1334 29.2794 23.1334 30.2908C23.1334 31.3699 22.0929 31.4813 21.909 31.4958H17.0939C17.002 31.4958 16.1696 31.5006 15.5647 32.0958C15.1872 32.4685 14.9985 32.9718 14.9985 33.5864C14.9985 34.2009 15.1921 34.7284 15.5744 35.1059C16.1696 35.6963 16.9729 35.7011 17.0697 35.7011H21.6961C23.0463 35.7011 24.3335 35.1882 25.3304 34.2445C25.3836 34.1864 30.9053 28.539 32.3571 27.5033C32.8265 27.1694 33.4024 27.1597 33.6976 27.4791C34.0267 27.8421 34.0218 28.718 32.933 29.9859Z" fill="white"/>
</svg>
